<svg version="1.1" viewBox="0.0 0.0 940.7349081364829 137.57742782152232" fill="none" stroke="none" stroke-linecap="square" stroke-miterlimit="10" xmlns:xlink="http://www.w3.org/1999/xlink" xmlns="http://www.w3.org/2000/svg"><clipPath id="p.0"><path d="m0 0l940.7349 0l0 137.57742l-940.7349 0l0 -137.57742z" clip-rule="nonzero"/></clipPath><g clip-path="url(#p.0)"><path fill="#000000" fill-opacity="0.0" d="m0 0l940.7349 0l0 137.57742l-940.7349 0z" fill-rule="evenodd"/><path fill="#000000" fill-opacity="0.0" d="m-3.727034 28.430447l968.62994 0l0 80.7874l-968.62994 0z" fill-rule="evenodd"/><path fill="#000000" d="m20.069841 70.02357q-6.109376 -1.765625 -8.906251 -4.3125q-2.78125 -2.5624962 -2.78125 -6.328121q0 -4.25 3.40625 -7.03125q3.40625 -2.796875 8.843751 -2.796875q3.703125 0 6.609375 1.4375q2.921875 1.4375 4.515625 3.96875q1.5937481 2.515625 1.5937481 5.515625l-4.781248 0q0 -3.265625 -2.078125 -5.125q-2.078125 -1.875 -5.859375 -1.875q-3.515625 0 -5.484376 1.546875q-1.953125 1.53125 -1.953125 4.28125q0 2.203125 1.859375 3.734375q1.875001 1.5156212 6.359376 2.7812462q4.484375 1.25 7.015625 2.78125q2.546875 1.515625 3.765623 3.546875q1.21875 2.03125 1.21875 4.765625q0 4.375 -3.406248 7.015625q-3.40625 2.640625 -9.125 2.640625q-3.71875 0 -6.937501 -1.421875q-3.203125 -1.421875 -4.953125 -3.890625q-1.7343745 -2.484375 -1.7343745 -5.625l4.7656245 0q0 3.265625 2.40625 5.15625q2.421876 1.890625 6.453126 1.890625q3.75 0 5.75 -1.53125q2.015625 -1.53125 2.015625 -4.171875q0 -2.65625 -1.859375 -4.09375q-1.859375 -1.453125 -6.71875 -2.859375zm29.458662 12.8125q2.4375 0 4.265625 -1.484375q1.84375 -1.484375 2.03125 -3.71875l4.328125 0q-0.125 2.296875 -1.578125 4.375q-1.453125 2.078125 -3.890625 3.328125q-2.4375 1.234375 -5.15625 1.234375q-5.46875 0 -8.703125 -3.640625q-3.21875 -3.65625 -3.21875 -10.0l0 -0.765625q0 -3.90625 1.421875 -6.9375q1.4375 -3.0468712 4.125 -4.718746q2.6875 -1.6875 6.34375 -1.6875q4.5 0 7.484375 2.703125q2.984375 2.6874962 3.171875 6.984371l-4.328125 0q-0.1875 -2.59375 -1.96875 -4.265625q-1.765625 -1.6718712 -4.359375 -1.6718712q-3.484375 0 -5.40625 2.5156212q-1.921875 2.5 -1.921875 7.25l0 0.875q0 4.625 1.90625 7.125q1.90625 2.5 5.453125 2.5zm28.718506 -19.421871q-1.046875 -0.171875 -2.265625 -0.171875q-4.5 0 -6.109375 3.8281212l0 19.0l-4.5625 0l0 -26.765621l4.453125 0l0.0625 3.09375q2.25 -3.578125 6.390625 -3.578125q1.328125 0 2.03125 0.34375l0 4.25zm2.4899597 9.031246q0 -3.9375 1.546875 -7.078125q1.546875 -3.1406212 4.296875 -4.843746q2.765625 -1.703125 6.296875 -1.703125q5.46875 0 8.84375 3.78125q3.375 3.7812462 3.375 10.062496l0 0.328125q0 3.90625 -1.5 7.015625q-1.484375 3.09375 -4.265625 4.828125q-2.78125 1.734375 -6.40625 1.734375q-5.4375 0 -8.8125 -3.78125q-3.375 -3.796875 -3.375 -10.03125l0 -0.3125zm4.59375 0.546875q0 4.453125 2.0625 7.15625q2.078125 2.6875 5.53125 2.6875q3.5 0 5.546875 -2.734375q2.046875 -2.734375 2.046875 -7.65625q0 -4.40625 -2.09375 -7.140625q-2.078125 -2.7343712 -5.546875 -2.7343712q-3.390625 0 -5.46875 2.7031212q-2.078125 2.6875 -2.078125 7.71875zm30.483643 13.078125l-4.578125 0l0 -37.999996l4.578125 0l0 37.999996zm12.293045 0l-4.578125 0l0 -37.999996l4.578125 0l0 37.999996zm23.83992 0q-0.390625 -0.796875 -0.640625 -2.8125q-3.1875 3.3125 -7.625 3.3125q-3.953125 0 -6.484375 -2.234375q-2.53125 -2.25 -2.53125 -5.6875q0 -4.171875 3.171875 -6.484375q3.171875 -2.3125 8.9375 -2.3125l4.453125 0l0 -2.109375q0 -2.40625 -1.4375 -3.8281212q-1.421875 -1.421875 -4.21875 -1.421875q-2.453125 0 -4.109375 1.25q-1.65625 1.2343712 -1.65625 2.9843712l-4.609375 0q0 -2.0 1.421875 -3.8593712q1.421875 -1.875 3.859375 -2.953125q2.4375 -1.09375 5.359375 -1.09375q4.625 0 7.25 2.3125q2.625 2.3125 2.71875 6.359371l0 12.3125q0 3.6875 0.9375 5.875l0 0.390625l-4.796875 0zm-7.59375 -3.484375q2.15625 0 4.078125 -1.109375q1.9375 -1.125 2.796875 -2.90625l0 -5.484375l-3.578125 0q-8.421875 0 -8.421875 4.921875q0 2.15625 1.4375 3.375q1.4375 1.203125 3.6875 1.203125zm41.288605 -9.59375q0 6.125 -2.828125 9.859375q-2.8125 3.71875 -7.5625 3.71875q-5.078125 0 -7.84375 -3.59375l-0.21875 3.09375l-4.203125 0l0 -37.999996l4.5625 0l0 14.1875q2.78125 -3.4375 7.640625 -3.4375q4.875 0 7.65625 3.6875q2.796875 3.6718712 2.796875 10.078121l0 0.40625zm-4.578125 -0.53125q0 -4.671875 -1.8125 -7.21875q-1.796875 -2.5468712 -5.1875 -2.5468712q-4.53125 0 -6.515625 4.203121l0 11.578125q2.109375 4.203125 6.5625 4.203125q3.296875 0 5.125 -2.546875q1.828125 -2.546875 1.828125 -7.671875zm15.310562 13.609375l-4.578125 0l0 -37.999996l4.578125 0l0 37.999996zm18.418045 0.5q-5.4375 0 -8.859375 -3.578125q-3.40625 -3.578125 -3.40625 -9.5625l0 -0.84375q0 -3.984375 1.515625 -7.109375q1.53125 -3.1249962 4.265625 -4.890621q2.734375 -1.765625 5.921875 -1.765625q5.21875 0 8.109375 3.4375q2.890625 3.4374962 2.890625 9.843746l0 1.890625l-18.125 0q0.09375 3.96875 2.3125 6.40625q2.21875 2.4375 5.625 2.4375q2.421875 0 4.109375 -0.984375q1.6875 -1.0 2.9375 -2.625l2.796875 2.171875q-3.359375 5.171875 -10.09375 5.171875zm-0.5625 -23.999996q-2.765625 0 -4.65625 2.0156212q-1.875 2.015625 -2.3125 5.65625l13.40625 0l0 -0.34375q-0.203125 -3.484375 -1.890625 -5.40625q-1.671875 -1.9218712 -4.546875 -1.9218712zm40.17421 7.453121q-6.1093903 -1.765625 -8.906265 -4.3125q-2.78125 -2.5624962 -2.78125 -6.328121q0 -4.25 3.40625 -7.03125q3.40625 -2.796875 8.843765 -2.796875q3.7031403 0 6.6093903 1.4375q2.921875 1.4375 4.515625 3.96875q1.59375 2.515625 1.59375 5.515625l-4.78125 0q0 -3.265625 -2.078125 -5.125q-2.078125 -1.875 -5.8593903 -1.875q-3.5156403 0 -5.4843903 1.546875q-1.953125 1.53125 -1.953125 4.28125q0 2.203125 1.859375 3.734375q1.875 1.5156212 6.3593903 2.7812462q4.4843903 1.25 7.0156403 2.78125q2.546875 1.515625 3.765625 3.546875q1.21875 2.03125 1.21875 4.765625q0 4.375 -3.40625 7.015625q-3.40625 2.640625 -9.125015 2.640625q-3.7187653 0 -6.9375153 -1.421875q-3.203125 -1.421875 -4.953125 -3.890625q-1.734375 -2.484375 -1.734375 -5.625l4.765625 0q0 3.265625 2.40625 5.15625q2.421875 1.890625 6.4531403 1.890625q3.7500153 0 5.7500153 -1.53125q2.015625 -1.53125 2.015625 -4.171875q0 -2.65625 -1.859375 -4.09375q-1.859375 -1.453125 -6.7187653 -2.859375zm23.693039 16.046875l-4.578125 0l0 -26.765621l4.578125 0l0 26.765621zm-4.953125 -33.85937q0 -1.109375 0.671875 -1.875q0.6875 -0.78125 2.015625 -0.78125q1.34375 0 2.03125 0.78125q0.703125 0.765625 0.703125 1.875q0 1.109375 -0.703125 1.859375q-0.6875 0.734375 -2.03125 0.734375q-1.328125 0 -2.015625 -0.734375q-0.671875 -0.75 -0.671875 -1.859375zm18.48056 0.609375l0 6.484375l5.0 0l0 3.546875l-5.0 0l0 16.593746q0 1.609375 0.65625 2.421875q0.671875 0.796875 2.28125 0.796875q0.796875 0 2.1875 -0.296875l0 3.703125q-1.8125 0.5 -3.515625 0.5q-3.0625 0 -4.625 -1.859375q-1.5625 -1.859375 -1.5625 -5.265625l0 -16.593746l-4.875 0l0 -3.546875l4.875 0l0 -6.484375l4.578125 0zm21.437988 33.749996q-5.4375 0 -8.859375 -3.578125q-3.40625 -3.578125 -3.40625 -9.5625l0 -0.84375q0 -3.984375 1.515625 -7.109375q1.53125 -3.1249962 4.265625 -4.890621q2.734375 -1.765625 5.921875 -1.765625q5.21875 0 8.109375 3.4375q2.890625 3.4374962 2.890625 9.843746l0 1.890625l-18.125 0q0.09375 3.96875 2.3125 6.40625q2.21875 2.4375 5.625 2.4375q2.421875 0 4.109375 -0.984375q1.6875 -1.0 2.9375 -2.625l2.796875 2.171875q-3.359375 5.171875 -10.09375 5.171875zm-0.5625 -23.999996q-2.765625 0 -4.65625 2.0156212q-1.875 2.015625 -2.3125 5.65625l13.40625 0l0 -0.34375q-0.203125 -3.484375 -1.890625 -5.40625q-1.671875 -1.9218712 -4.546875 -1.9218712zm57.236694 23.499996l-4.78125 0l-18.125 -27.749996l0 27.749996l-4.765625 0l0 -36.01562l4.765625 0l18.1875 27.874996l0 -27.874996l4.71875 0l0 36.01562zm24.237366 0q-0.390625 -0.796875 -0.640625 -2.8125q-3.1875 3.3125 -7.625 3.3125q-3.953125 0 -6.484375 -2.234375q-2.53125 -2.25 -2.53125 -5.6875q0 -4.171875 3.171875 -6.484375q3.171875 -2.3125 8.9375 -2.3125l4.453125 0l0 -2.109375q0 -2.40625 -1.4375 -3.8281212q-1.421875 -1.421875 -4.21875 -1.421875q-2.453125 0 -4.109375 1.25q-1.65625 1.2343712 -1.65625 2.9843712l-4.609375 0q0 -2.0 1.421875 -3.8593712q1.421875 -1.875 3.859375 -2.953125q2.4375 -1.09375 5.359375 -1.09375q4.625 0 7.25 2.3125q2.625 2.3125 2.71875 6.359371l0 12.3125q0 3.6875 0.9375 5.875l0 0.390625l-4.796875 0zm-7.59375 -3.484375q2.15625 0 4.078125 -1.109375q1.9375 -1.125 2.796875 -2.90625l0 -5.484375l-3.578125 0q-8.421875 0 -8.421875 4.921875q0 2.15625 1.4375 3.375q1.4375 1.203125 3.6875 1.203125zm27.089386 -2.71875l6.625 -20.562496l4.671875 0l-9.59375 26.765621l-3.484375 0l-9.703125 -26.765621l4.671875 0l6.8125 20.562496zm20.677246 6.203125l-4.578125 0l0 -26.765621l4.578125 0l0 26.765621zm-4.953125 -33.85937q0 -1.109375 0.671875 -1.875q0.6875 -0.78125 2.015625 -0.78125q1.34375 0 2.03125 0.78125q0.703125 0.765625 0.703125 1.875q0 1.109375 -0.703125 1.859375q-0.6875 0.734375 -2.03125 0.734375q-1.328125 0 -2.015625 -0.734375q-0.671875 -0.75 -0.671875 -1.859375zm11.183685 20.249996q0 -6.25 2.890625 -9.937496q2.890625 -3.703125 7.671875 -3.703125q4.890625 0 7.640625 3.453125l0.21875 -2.96875l4.1875 0l0 26.124996q0 5.1875 -3.078125 8.171875q-3.078125 3.0 -8.28125 3.0q-2.890625 0 -5.671875 -1.234375q-2.765625 -1.234375 -4.21875 -3.390625l2.375 -2.734375q2.9375 3.625 7.203125 3.625q3.328125 0 5.1875 -1.875q1.875 -1.875 1.875 -5.296875l0 -2.296875q-2.734375 3.171875 -7.484375 3.171875q-4.703125 0 -7.609375 -3.78125q-2.90625 -3.796875 -2.90625 -10.328125zm4.59375 0.53125q0 4.515625 1.859375 7.109375q1.859375 2.578125 5.203125 2.578125q4.328125 0 6.34375 -3.9375l0 -12.21875q-2.09375 -3.8281212 -6.296875 -3.8281212q-3.34375 0 -5.234375 2.5937462q-1.875 2.59375 -1.875 7.703125zm41.435547 13.078125q-0.390625 -0.796875 -0.640625 -2.8125q-3.1875 3.3125 -7.625 3.3125q-3.953125 0 -6.484375 -2.234375q-2.53125 -2.25 -2.53125 -5.6875q0 -4.171875 3.171875 -6.484375q3.171875 -2.3125 8.9375 -2.3125l4.453125 0l0 -2.109375q0 -2.40625 -1.4375 -3.8281212q-1.421875 -1.421875 -4.21875 -1.421875q-2.453125 0 -4.109375 1.25q-1.65625 1.2343712 -1.65625 2.9843712l-4.609375 0q0 -2.0 1.421875 -3.8593712q1.421875 -1.875 3.859375 -2.953125q2.4375 -1.09375 5.359375 -1.09375q4.625 0 7.25 2.3125q2.625 2.3125 2.71875 6.359371l0 12.3125q0 3.6875 0.9375 5.875l0 0.390625l-4.796875 0zm-7.59375 -3.484375q2.15625 0 4.078125 -1.109375q1.9375 -1.125 2.796875 -2.90625l0 -5.484375l-3.578125 0q-8.421875 0 -8.421875 4.921875q0 2.15625 1.4375 3.375q1.4375 1.203125 3.6875 1.203125zm24.83548 -29.765621l0 6.484375l4.9999695 0l0 3.546875l-4.9999695 0l0 16.593746q0 1.609375 0.65625 2.421875q0.671875 0.796875 2.28125 0.796875q0.796875 0 2.1874695 -0.296875l0 3.703125q-1.8124695 0.5 -3.5155945 0.5q-3.0625 0 -4.625 -1.859375q-1.5625 -1.859375 -1.5625 -5.265625l0 -16.593746l-4.875 0l0 -3.546875l4.875 0l0 -6.484375l4.578125 0zm15.312988 33.249996l-4.578125 0l0 -26.765621l4.578125 0l0 26.765621zm-4.953125 -33.85937q0 -1.109375 0.671875 -1.875q0.6875 -0.78125 2.015625 -0.78125q1.34375 0 2.03125 0.78125q0.703125 0.765625 0.703125 1.875q0 1.109375 -0.703125 1.859375q-0.6875 0.734375 -2.03125 0.734375q-1.328125 0 -2.015625 -0.734375q-0.671875 -0.75 -0.671875 -1.859375zm11.058655 20.234371q0 -3.9375 1.546875 -7.078125q1.546875 -3.1406212 4.296875 -4.843746q2.765625 -1.703125 6.296875 -1.703125q5.46875 0 8.84375 3.78125q3.375 3.7812462 3.375 10.062496l0 0.328125q0 3.90625 -1.5 7.015625q-1.484375 3.09375 -4.265625 4.828125q-2.78125 1.734375 -6.40625 1.734375q-5.4375 0 -8.8125 -3.78125q-3.375 -3.796875 -3.375 -10.03125l0 -0.3125zm4.59375 0.546875q0 4.453125 2.0625 7.15625q2.078125 2.6875 5.53125 2.6875q3.5 0 5.546875 -2.734375q2.046875 -2.734375 2.046875 -7.65625q0 -4.40625 -2.09375 -7.140625q-2.078125 -2.7343712 -5.546875 -2.7343712q-3.390625 0 -5.46875 2.7031212q-2.078125 2.6875 -2.078125 7.71875zm29.843018 -13.687496l0.140625 3.359375q3.0625 -3.84375 8.015625 -3.84375q8.484375 0 8.5625 9.562496l0 17.6875l-4.578125 0l0 -17.703125q-0.03125 -2.90625 -1.328125 -4.28125q-1.296875 -1.3906212 -4.046875 -1.3906212q-2.21875 0 -3.90625 1.1875q-1.671875 1.1874962 -2.625 3.1249962l0 19.0625l-4.5625 0l0 -26.765621l4.328125 0zm59.84973 20.453121l5.140625 -20.453121l4.578125 0l-7.78125 26.765621l-3.71875 0l-6.5 -20.28125l-6.328125 20.28125l-3.71875 0l-7.765625 -26.765621l4.546875 0l5.28125 20.031246l6.21875 -20.031246l3.6875 0l6.359375 20.453121zm19.347656 6.3125l-4.578125 0l0 -26.765621l4.578125 0l0 26.765621zm-4.953125 -33.85937q0 -1.109375 0.671875 -1.875q0.6875 -0.78125 2.015625 -0.78125q1.34375 0 2.03125 0.78125q0.703125 0.765625 0.703125 1.875q0 1.109375 -0.703125 1.859375q-0.6875 0.734375 -2.03125 0.734375q-1.328125 0 -2.015625 -0.734375q-0.671875 -0.75 -0.671875 -1.859375zm18.48053 0.609375l0 6.484375l5.0 0l0 3.546875l-5.0 0l0 16.593746q0 1.609375 0.65625 2.421875q0.671875 0.796875 2.28125 0.796875q0.796875 0 2.1875 -0.296875l0 3.703125q-1.8125 0.5 -3.515625 0.5q-3.0625 0 -4.625 -1.859375q-1.5625 -1.859375 -1.5625 -5.265625l0 -16.593746l-4.875 0l0 -3.546875l4.875 0l0 -6.484375l4.578125 0zm14.906738 9.734375q3.046875 -3.734375 7.921875 -3.734375q8.484375 0 8.5625 9.562496l0 17.6875l-4.578125 0l0 -17.703125q-0.03125 -2.90625 -1.328125 -4.28125q-1.296875 -1.3906212 -4.046875 -1.3906212q-2.21875 0 -3.90625 1.1875q-1.671875 1.1874962 -2.625 3.1249962l0 19.0625l-4.5625 0l0 -37.999996l4.5625 0l0 14.484375z" fill-rule="nonzero"/><path fill="#000000" d="m721.85785 86.07044l0 -3.046875q-4.25 3.859375 -9.203125 3.859375q-3.046875 0 -4.625 -1.65625q-2.046875 -2.171875 -2.046875 -5.0625l0 -13.40625l-2.796875 0q-0.75 0 -1.078125 -0.296875q-0.3125 -0.296875 -0.3125 -0.765625q0 -0.453125 0.3125 -0.75q0.328125 -0.296875 1.078125 -0.296875l4.875 0l0 15.515625q0 2.015625 1.28125 3.328125q1.28125 1.3125 3.21875 1.3125q5.0625 0 9.296875 -4.640625l0 -13.40625l-3.828125 0q-0.75 0 -1.078125 -0.296875q-0.3125 -0.296875 -0.3125 -0.765625q0 -0.453125 0.3125 -0.75q0.328125 -0.296875 1.078125 -0.296875l5.90625 0l0 19.34375l1.75 0q0.75 0 1.0625 0.28125q0.328125 0.28125 0.328125 0.765625q0 0.4375 -0.328125 0.734375q-0.3125 0.296875 -1.0625 0.296875l-3.828125 0zm30.148682 -20.0625q0 -0.71875 0.296875 -1.03125q0.296875 -0.328125 0.75 -0.328125q0.46875 0 0.765625 0.328125q0.296875 0.3125 0.296875 1.078125l0 3.5625q0 0.75 -0.296875 1.078125q-0.296875 0.3125 -0.765625 0.3125q-0.421875 0 -0.71875 -0.265625q-0.28125 -0.28125 -0.328125 -0.890625q-0.140625 -1.484375 -1.53125 -2.453125q-2.03125 -1.390625 -5.375 -1.390625q-3.484375 0 -5.40625 1.40625q-1.46875 1.0625 -1.46875 2.375q0 1.484375 1.734375 2.484375q1.1875 0.6875 4.5 1.0625q4.328125 0.46875 6.015625 1.0625q2.390625 0.859375 3.5625 2.40625q1.1875 1.53125 1.1875 3.296875q0 2.65625 -2.546875 4.71875q-2.546875 2.0625 -7.46875 2.0625q-4.921875 0 -8.0625 -2.5q0 0.84375 -0.109375 1.09375q-0.09375 0.25 -0.359375 0.421875q-0.25 0.171875 -0.578125 0.171875q-0.4375 0 -0.734375 -0.3125q-0.296875 -0.328125 -0.296875 -1.078125l0 -4.28125q0 -0.734375 0.28125 -1.046875q0.28125 -0.328125 0.75 -0.328125q0.453125 0 0.75 0.3125q0.3125 0.296875 0.3125 0.828125q0 1.125 0.578125 1.90625q0.859375 1.1875 2.75 1.96875q1.890625 0.765625 4.640625 0.765625q4.0625 0 6.03125 -1.5q1.984375 -1.515625 1.984375 -3.203125q0 -1.921875 -2.0 -3.078125q-2.03125 -1.171875 -5.90625 -1.5625q-3.875 -0.390625 -5.5625 -1.03125q-1.671875 -0.65625 -2.609375 -1.9375q-0.9375 -1.28125 -0.9375 -2.765625q0 -2.671875 2.609375 -4.234375q2.625 -1.5781212 6.265625 -1.5781212q4.296875 0 7.0 2.0937462zm34.773743 9.84375l-21.171875 0q0.546875 4.03125 3.375 6.5q2.84375 2.453125 7.015625 2.453125q2.328125 0 4.875 -0.765625q2.546875 -0.765625 4.15625 -2.03125q0.46875 -0.359375 0.8125 -0.359375q0.390625 0 0.6875 0.3125q0.296875 0.296875 0.296875 0.71875q0 0.421875 -0.390625 0.8125q-1.1875 1.25 -4.21875 2.328125q-3.03125 1.0625 -6.21875 1.0625q-5.34375 0 -8.921875 -3.5q-3.5625 -3.5 -3.5625 -8.46875q0 -4.53125 3.34375 -7.765625q3.359375 -3.2343712 8.296875 -3.2343712q5.09375 0 8.375 3.3281212q3.296875 3.3125 3.25 8.609375zm-2.09375 -2.09375q-0.625 -3.4375 -3.265625 -5.59375q-2.625 -2.15625 -6.265625 -2.15625q-3.625 0 -6.25 2.125q-2.625 2.125 -3.265625 5.625l19.046875 0zm31.429932 12.3125l-2.671875 0l-15.3125 -25.890621l0 23.812496l3.84375 0q0.765625 0 1.078125 0.28125q0.328125 0.28125 0.328125 0.765625q0 0.4375 -0.328125 0.734375q-0.3125 0.296875 -1.078125 0.296875l-7.640625 0q-0.78125 0 -1.109375 -0.296875q-0.3125 -0.296875 -0.3125 -0.734375q0 -0.484375 0.3125 -0.765625q0.328125 -0.28125 1.109375 -0.28125l1.71875 0l0 -24.781246l-2.796875 0q-0.734375 0 -1.0625 -0.28125q-0.3125 -0.296875 -0.3125 -0.765625q0 -0.46875 0.3125 -0.75q0.328125 -0.28125 1.0625 -0.28125l5.453125 0l15.328125 25.937496l0 -23.859371l-3.828125 0q-0.75 0 -1.078125 -0.28125q-0.3125 -0.296875 -0.3125 -0.765625q0 -0.46875 0.3125 -0.75q0.3125 -0.28125 1.078125 -0.28125l7.671875 0q0.734375 0 1.046875 0.28125q0.328125 0.28125 0.328125 0.75q0 0.46875 -0.328125 0.765625q-0.3125 0.28125 -1.046875 0.28125l-1.765625 0l0 26.859371zm26.195557 0l0 -3.0q-4.53125 3.8125 -9.671875 3.8125q-3.734375 0 -5.84375 -1.890625q-2.09375 -1.890625 -2.09375 -4.640625q0 -3.015625 2.765625 -5.265625q2.78125 -2.25 8.09375 -2.25q1.4375 0 3.109375 0.1875q1.6875 0.1875 3.640625 0.578125l0 -3.359375q0 -1.703125 -1.59375 -2.96875q-1.578125 -1.265625 -4.734375 -1.265625q-2.421875 0 -6.8125 1.40625q-0.78125 0.25 -1.0 0.25q-0.40625 0 -0.6875 -0.296875q-0.28125 -0.296875 -0.28125 -0.734375q0 -0.421875 0.25 -0.671875q0.34375 -0.375 2.796875 -1.015625q3.84375 -1.0312462 5.828125 -1.0312462q3.9375 0 6.140625 1.9374962q2.203125 1.9375 2.203125 4.390625l0 13.75l2.765625 0q0.765625 0 1.078125 0.28125q0.328125 0.28125 0.328125 0.765625q0 0.4375 -0.328125 0.734375q-0.3125 0.296875 -1.078125 0.296875l-4.875 0zm0 -10.34375q-1.453125 -0.421875 -3.09375 -0.609375q-1.625 -0.203125 -3.4375 -0.203125q-4.53125 0 -7.078125 1.953125q-1.921875 1.46875 -1.921875 3.484375q0 1.890625 1.46875 3.171875q1.46875 1.28125 4.296875 1.28125q2.6875 0 5.0 -1.0625q2.3125 -1.078125 4.765625 -3.4375l0 -4.578125zm26.242432 10.34375l-3.515625 0l-8.53125 -19.3125l-2.125 0q-0.734375 0 -1.0625 -0.296875q-0.328125 -0.296875 -0.328125 -0.765625q0 -0.453125 0.328125 -0.75q0.328125 -0.296875 1.0625 -0.296875l7.796875 0q0.734375 0 1.046875 0.296875q0.328125 0.296875 0.328125 0.765625q0 0.453125 -0.328125 0.75q-0.3125 0.296875 -1.046875 0.296875l-3.4375 0l7.609375 17.234375l0.921875 0l7.46875 -17.234375l-3.46875 0q-0.734375 0 -1.0625 -0.296875q-0.3125 -0.296875 -0.3125 -0.765625q0 -0.453125 0.3125 -0.75q0.328125 -0.296875 1.0625 -0.296875l7.8125 0q0.78125 0 1.078125 0.296875q0.3125 0.296875 0.3125 0.765625q0 0.453125 -0.3125 0.75q-0.296875 0.296875 -1.078125 0.296875l-2.09375 0l-8.4375 19.3125zm28.351807 -12.3125q0 -2.84375 0.734375 -6.03125q0.75 -3.203125 2.84375 -7.374996q2.109375 -4.1875 3.078125 -5.046875q0.296875 -0.28125 0.640625 -0.28125q0.4375 0 0.75 0.296875q0.3125 0.296875 0.3125 0.71875q0 0.25 -0.171875 0.546875q-2.71875 5.0 -3.890625 9.062496q-1.15625 4.046875 -1.15625 8.109375q0 4.078125 1.15625 8.140625q1.171875 4.046875 3.890625 9.015625q0.171875 0.296875 0.171875 0.546875q0 0.421875 -0.3125 0.734375q-0.3125 0.3125 -0.75 0.3125q-0.34375 0 -0.640625 -0.28125q-0.921875 -0.84375 -3.0 -4.921875q-2.078125 -4.078125 -2.875 -7.21875q-0.78125 -3.140625 -0.78125 -6.328125zm31.242493 0.015625q0 2.84375 -0.75 6.03125q-0.734375 3.171875 -2.84375 7.359375q-2.109375 4.203125 -3.0625 5.046875q-0.296875 0.296875 -0.640625 0.296875q-0.453125 0 -0.765625 -0.3125q-0.3125 -0.3125 -0.3125 -0.734375q0 -0.25 0.1875 -0.546875q2.71875 -4.96875 3.875 -9.015625q1.171875 -4.0625 1.171875 -8.125q0 -4.078125 -1.171875 -8.125q-1.15625 -4.062496 -3.875 -9.062496q-0.1875 -0.296875 -0.1875 -0.546875q0 -0.421875 0.3125 -0.71875q0.3125 -0.296875 0.765625 -0.296875q0.34375 0 0.640625 0.28125q0.90625 0.84375 2.984375 4.921875q2.078125 4.078121 2.875 7.218746q0.796875 3.140625 0.796875 6.328125z" fill-rule="nonzero"/></g></svg>