<svg version="1.1" viewBox="0.0 0.0 940.7349081364829 137.57742782152232" fill="none" stroke="none" stroke-linecap="square" stroke-miterlimit="10" xmlns:xlink="http://www.w3.org/1999/xlink" xmlns="http://www.w3.org/2000/svg"><clipPath id="p.0"><path d="m0 0l940.7349 0l0 137.57742l-940.7349 0l0 -137.57742z" clip-rule="nonzero"/></clipPath><g clip-path="url(#p.0)"><path fill="#000000" fill-opacity="0.0" d="m0 0l940.7349 0l0 137.57742l-940.7349 0z" fill-rule="evenodd"/><path fill="#000000" fill-opacity="0.0" d="m193.18636 28.396326l554.36224 0l0 80.7874l-554.36224 0z" fill-rule="evenodd"/><path fill="#000000" d="m219.85823 86.59882q-5.15625 0 -8.734375 -2.375q-3.5625 -2.390625 -5.390625 -6.71875q-1.828125 -4.328125 -1.828125 -10.0625q0 -5.828125 2.203125 -10.234375q2.203125 -4.40625 6.046875 -6.8125q3.859375 -2.40625 8.671875 -2.40625q7.90625 0 12.078125 5.0q4.1875 4.984375 4.1875 13.796875q0 5.921875 -2.265625 10.40625q-2.25 4.484375 -6.171875 6.953125q-3.921875 2.453125 -8.796875 2.453125zm0.671875 -35.96875q-4.921875 0 -7.765625 4.28125q-2.828125 4.28125 -2.828125 12.53125q0 7.59375 2.75 12.03125q2.765625 4.4375 7.734375 4.4375q4.859375 0 7.71875 -4.40625q2.875 -4.40625 2.875 -12.671875q0 -7.640625 -2.734375 -11.921875q-2.734375 -4.28125 -7.75 -4.28125zm47.917618 20.359375q0 4.3125 -1.78125 7.890625q-1.765625 3.5625 -5.0625 5.640625q-3.296875 2.078125 -7.703125 2.078125q-1.203125 0 -2.625 -0.203125q-1.421875 -0.203125 -2.28125 -0.515625l0.15625 4.265625l0 5.109375l5.265625 0.5625l0 2.484375l-14.140625 0l0 -2.484375l3.65625 -0.5625l0 -33.4375l-3.703125 -0.90625l0 -2.734375l7.1875 -0.90625l0.109375 0l1.0625 0.90625l0 2.984375q1.515625 -1.671875 3.765625 -2.828125q2.265625 -1.171875 5.046875 -1.171875q2.984375 0 5.484375 1.46875q2.515625 1.46875 4.03125 4.5625q1.53125 3.09375 1.53125 7.796875zm-13.125 -10.28125q-1.921875 0 -3.59375 0.8125q-1.671875 0.8125 -2.578125 1.765625l0 19.109375q0.34375 0.59375 1.78125 1.078125q1.453125 0.484375 3.171875 0.484375q3.90625 0 6.3125 -3.078125q2.40625 -3.09375 2.40625 -9.328125q0 -5.46875 -2.109375 -8.15625q-2.09375 -2.6875 -5.390625 -2.6875zm29.98404 25.890625q-6.125 0 -9.34375 -4.0q-3.21875 -4.015625 -3.21875 -10.703125q0 -4.40625 1.671875 -7.75q1.671875 -3.34375 4.6875 -5.15625q3.015625 -1.828125 6.875 -1.828125q4.703125 0 7.3125 2.609375q2.609375 2.609375 2.765625 7.46875q0 3.09375 -0.359375 4.71875l-17.421875 0q0.09375 5.015625 2.328125 8.078125q2.234375 3.0625 6.328125 3.0625q2.03125 0 4.234375 -0.734375q2.203125 -0.734375 3.421875 -1.75l0.953125 2.234375q-1.46875 1.515625 -4.359375 2.640625q-2.875 1.109375 -5.875 1.109375zm5.171875 -17.328125q0.15625 -1.0625 0.15625 -2.1875q-0.046875 -3.28125 -1.390625 -5.171875q-1.34375 -1.90625 -4.234375 -1.90625q-2.9375 0 -4.6875 2.125q-1.75 2.125 -2.0 7.140625l12.15625 0zm12.963287 -7.453125l-3.640625 -0.90625l0 -2.734375l7.25 -0.90625l0.140625 0l1.0625 0.90625l0 2.125l-0.046875 1.21875q1.828125 -1.625 4.8125 -2.9375q2.984375 -1.3125 5.71875 -1.3125q3.203125 0 4.9375 1.21875q1.75 1.203125 2.453125 3.71875q0.71875 2.5 0.71875 6.75l0 14.1875l3.546875 0.359375l0 2.53125l-12.0 0l0 -2.484375l3.140625 -0.40625l0 -14.234375q0 -2.984375 -0.40625 -4.671875q-0.40625 -1.703125 -1.53125 -2.53125q-1.109375 -0.84375 -3.234375 -0.84375q-1.828125 0 -3.90625 0.90625q-2.0625 0.90625 -3.6875 2.125l0 19.203125l3.4375 0.453125l0 2.484375l-11.953125 0l0 -2.484375l3.1875 -0.453125l0 -21.28125zm27.354553 -13.421875l13.734375 0l0 2.53125l-4.765625 0.609375l6.9375 23.609375l1.46875 7.046875l1.671875 -7.046875l5.828125 -19.296875l-1.359375 -4.3125l-3.59375 -0.609375l0 -2.53125l14.234375 0l0 2.53125l-4.96875 0.609375l6.828125 23.609375l1.734375 7.59375l1.40625 -7.59375l6.390625 -23.609375l-5.015625 -0.609375l0 -2.53125l12.0625 0l0 2.53125l-3.34375 0.609375l-10.09375 34.75l-4.953125 0l-7.75 -25.375l-7.5 25.375l-4.8125 0l-10.796875 -34.703125l-3.34375 -0.65625l0 -2.53125zm66.359436 38.203125q-6.125 0 -9.34375 -4.0q-3.21875 -4.015625 -3.21875 -10.703125q0 -4.40625 1.671875 -7.75q1.671875 -3.34375 4.6875 -5.15625q3.015625 -1.828125 6.875 -1.828125q4.703125 0 7.3125 2.609375q2.609375 2.609375 2.765625 7.46875q0 3.09375 -0.359375 4.71875l-17.421875 0q0.09375 5.015625 2.328125 8.078125q2.234375 3.0625 6.328125 3.0625q2.03125 0 4.234375 -0.734375q2.203125 -0.734375 3.421875 -1.75l0.953125 2.234375q-1.46875 1.515625 -4.359375 2.640625q-2.875 1.109375 -5.875 1.109375zm5.171875 -17.328125q0.15625 -1.0625 0.15625 -2.1875q-0.046875 -3.28125 -1.390625 -5.171875q-1.34375 -1.90625 -4.234375 -1.90625q-2.9375 0 -4.6875 2.125q-1.75 2.125 -2.0 7.140625l12.15625 0zm9.932037 9.171875q0 -4.765625 4.75 -7.015625q4.765625 -2.265625 12.0625 -2.40625l0 -1.421875q0 -2.375 -0.515625 -3.75q-0.5 -1.375 -1.734375 -2.0q-1.234375 -0.640625 -3.515625 -0.640625q-2.59375 0 -4.640625 0.734375q-2.046875 0.734375 -4.078125 1.8125l-1.265625 -2.640625q0.65625 -0.5625 2.421875 -1.46875q1.78125 -0.90625 4.109375 -1.609375q2.328125 -0.71875 4.65625 -0.71875q3.609375 0 5.703125 0.984375q2.109375 0.984375 3.015625 3.171875q0.90625 2.171875 0.90625 5.8125l0 16.265625l3.0 0l0 2.234375q-1.015625 0.25 -2.5625 0.5q-1.546875 0.25 -2.703125 0.25q-1.421875 0 -1.9375 -0.4375q-0.5 -0.421875 -0.5 -1.890625l0 -1.671875q-1.515625 1.53125 -3.71875 2.796875q-2.203125 1.265625 -5.0 1.265625q-3.640625 0 -6.046875 -2.09375q-2.40625 -2.109375 -2.40625 -6.0625zm10.640625 4.703125q1.3125 0 3.03125 -0.8125q1.71875 -0.8125 3.140625 -1.921875l0 -8.703125q-5.515625 0 -8.328125 1.703125q-2.8125 1.6875 -2.8125 4.421875q0 2.734375 1.34375 4.03125q1.34375 1.28125 3.625 1.28125zm26.433838 3.390625q-2.890625 0 -4.3125 -1.3125q-1.40625 -1.3125 -1.40625 -4.5l0 -19.453125l-3.640625 0l0 -2.28125q0.25 -0.046875 1.40625 -0.34375q1.171875 -0.3125 1.578125 -0.578125q0.8125 -0.453125 1.265625 -1.8125q0.40625 -0.96875 0.953125 -3.09375q0.5625 -2.125 0.671875 -2.53125l2.984375 0l0.09375 7.296875l8.46875 0l0 3.34375l-8.46875 0l0 15.546875q0 2.890625 0.171875 4.0625q0.1875 1.15625 0.765625 1.515625q0.59375 0.34375 2.0 0.34375q1.375 0 3.015625 -0.34375q1.65625 -0.359375 2.5625 -0.765625l0.765625 2.28125q-1.21875 0.90625 -3.9375 1.765625q-2.703125 0.859375 -4.9375 0.859375zm14.695251 -38.296875l-4.25 -0.546875l0 -2.1875l8.25 -0.953125l0.109375 0l1.109375 0.75l0 11.765625l-0.203125 4.296875q1.625 -1.46875 4.453125 -2.78125q2.84375 -1.3125 5.734375 -1.3125q3.1875 0 4.953125 1.21875q1.78125 1.203125 2.484375 3.71875q0.71875 2.5 0.71875 6.75l0 14.140625l3.53125 0.453125l0 2.484375l-12.09375 0l0 -2.484375l3.28125 -0.453125l0 -14.1875q0 -2.984375 -0.40625 -4.671875q-0.40625 -1.703125 -1.515625 -2.53125q-1.109375 -0.84375 -3.34375 -0.84375q-1.828125 0 -3.90625 0.90625q-2.0625 0.90625 -3.640625 2.125l0 19.203125l3.5 0.453125l0 2.484375l-11.8125 0l0 -2.484375l3.046875 -0.40625l0 -34.90625zm43.101257 38.359375q-6.125 0 -9.34375 -4.0q-3.21875 -4.015625 -3.21875 -10.703125q0 -4.40625 1.671875 -7.75q1.671875 -3.34375 4.6875 -5.15625q3.015625 -1.828125 6.875 -1.828125q4.703125 0 7.3125 2.609375q2.609375 2.609375 2.765625 7.46875q0 3.09375 -0.359375 4.71875l-17.421875 0q0.09375 5.015625 2.328125 8.078125q2.234375 3.0625 6.328125 3.0625q2.03125 0 4.234375 -0.734375q2.203125 -0.734375 3.421875 -1.75l0.953125 2.234375q-1.46875 1.515625 -4.359375 2.640625q-2.875 1.109375 -5.875 1.109375zm5.171875 -17.328125q0.15625 -1.0625 0.15625 -2.1875q-0.046875 -3.28125 -1.390625 -5.171875q-1.34375 -1.90625 -4.234375 -1.90625q-2.9375 0 -4.6875 2.125q-1.75 2.125 -2.0 7.140625l12.15625 0zm10.025818 14.28125l3.8125 -0.296875l0 -21.4375l-3.65625 -0.90625l0 -2.734375l6.984375 -0.90625l0.109375 0l1.109375 0.90625l0 0.90625l-0.140625 3.953125l0.140625 0q0.515625 -0.859375 1.828125 -2.21875q1.3125 -1.375 3.390625 -2.515625q2.078125 -1.140625 4.515625 -1.140625q1.015625 0 1.671875 0.25l0 5.671875q-0.359375 -0.25 -1.140625 -0.46875q-0.78125 -0.234375 -1.75 -0.234375q-4.203125 0 -7.796875 2.578125l0 18.234375l6.421875 0.40625l0 2.4375l-15.5 0l0 -2.484375zm41.143616 -32.015625l-5.53125 -0.609375l0 -2.53125l13.421875 0l7.15625 22.796875l1.671875 6.4375l1.515625 -6.4375l7.09375 -22.796875l13.3125 0l0 2.53125l-5.5625 0.609375l4.046875 31.453125l4.40625 0.5625l0 2.484375l-14.59375 0l0 -2.484375l4.609375 -0.5l-2.265625 -22.75l-1.078125 -9.78125l-2.125 7.296875l-8.453125 26.5l-3.296875 0l-8.203125 -24.265625l-2.984375 -9.578125l-0.921875 9.828125l-2.015625 22.75l5.015625 0.5l0 2.484375l-13.234375 0l0 -2.484375l4.3125 -0.5l3.703125 -31.515625zm44.11853 20.359375q0 -4.546875 1.875 -7.890625q1.875 -3.34375 4.9375 -5.09375q3.0625 -1.75 6.5625 -1.75q6.375 0 9.59375 4.0625q3.21875 4.046875 3.21875 10.625q0 4.609375 -1.875 7.953125q-1.875 3.34375 -4.9375 5.078125q-3.0625 1.71875 -6.5625 1.71875q-6.375 0 -9.59375 -4.046875q-3.21875 -4.0625 -3.21875 -10.65625zm13.125 11.8125q3.484375 0 5.359375 -2.890625q1.875 -2.890625 1.875 -8.5625q0 -5.625 -1.71875 -8.90625q-1.71875 -3.296875 -5.515625 -3.296875q-3.5 0 -5.40625 2.890625q-1.890625 2.875 -1.890625 8.5625q0 5.609375 1.765625 8.90625q1.78125 3.296875 5.53125 3.296875zm15.299011 -38.203125l8.09375 -0.953125l0.109375 0l1.15625 0.75l0 15.25q1.53125 -1.46875 3.625 -2.421875q2.109375 -0.96875 4.6875 -0.96875q3.03125 0 5.53125 1.46875q2.515625 1.46875 4.015625 4.5625q1.5 3.09375 1.5 7.796875q0 4.359375 -1.796875 7.90625q-1.796875 3.546875 -5.140625 5.625q-3.34375 2.078125 -7.75 2.078125q-3.5 0 -6.390625 -0.6875q-2.890625 -0.6875 -3.5 -1.25l0 -36.46875l-4.140625 -0.546875l0 -2.140625zm15.59375 15.25q-1.921875 0 -3.578125 0.890625q-1.640625 0.890625 -2.65625 2.0l0 18.640625q0.3125 0.703125 1.75 1.140625q1.453125 0.4375 3.265625 0.4375q3.90625 0 6.28125 -3.140625q2.390625 -3.140625 2.390625 -9.171875q0 -5.421875 -2.078125 -8.109375q-2.078125 -2.6875 -5.375 -2.6875zm23.498413 -7.90625q-1.609375 0 -2.421875 -0.90625q-0.8125 -0.90625 -0.8125 -2.328125q0 -1.625 0.984375 -2.6875q0.984375 -1.0625 2.71875 -1.0625q1.71875 0 2.53125 0.921875q0.8125 0.90625 0.8125 2.328125q0 1.71875 -1.0 2.734375q-0.984375 1.0 -2.75 1.0l-0.0625 0zm-2.015625 8.96875l-3.859375 -0.90625l0 -2.6875l7.859375 -0.953125l0.09375 0l1.171875 0.90625l0 24.96875l4.046875 0.40625l0 2.484375l-13.421875 0l0 -2.484375l4.109375 -0.453125l0 -21.28125zm16.61853 -13.578125l-4.109375 -0.546875l0 -2.1875l8.15625 -0.953125l0.09375 0l1.125 0.75l0 37.84375l4.296875 0.40625l0 2.484375l-13.671875 0l0 -2.484375l4.109375 -0.453125l0 -34.859375zm25.618591 38.359375q-6.125 0 -9.34375 -4.0q-3.21875 -4.015625 -3.21875 -10.703125q0 -4.40625 1.671875 -7.75q1.671875 -3.34375 4.6875 -5.15625q3.015625 -1.828125 6.875 -1.828125q4.703125 0 7.3125 2.609375q2.609375 2.609375 2.765625 7.46875q0 3.09375 -0.359375 4.71875l-17.421875 0q0.09375 5.015625 2.328125 8.078125q2.234375 3.0625 6.328125 3.0625q2.03125 0 4.234375 -0.734375q2.203125 -0.734375 3.421875 -1.75l0.953125 2.234375q-1.46875 1.515625 -4.359375 2.640625q-2.875 1.109375 -5.875 1.109375zm5.171875 -17.328125q0.15625 -1.0625 0.15625 -2.1875q-0.046875 -3.28125 -1.390625 -5.171875q-1.34375 -1.90625 -4.234375 -1.90625q-2.9375 0 -4.6875 2.125q-1.75 2.125 -2.0 7.140625l12.15625 0z" fill-rule="nonzero"/></g></svg>