<svg width="207" height="228" viewBox="0 0 207 228" fill="none" xmlns="http://www.w3.org/2000/svg">
<path d="M35.9676 2L195.729 15.7265C115.073 73.6163 266.304 176.863 174.014 210.881C81.7246 244.899 9.78408 210.881 9.78408 210.881C80.1735 142.845 -57.8732 45.5666 35.9676 2Z" fill="#FFD700" stroke="#FFD700" stroke-width="3" stroke-linejoin="round"/>
<path d="M60.8992 20L163.899 31.5C111.899 80 209.399 166.5 149.899 195C90.3992 223.5 44.0185 195 44.0185 195C89.3992 138 0.399208 56.5 60.8992 20Z" stroke="black" stroke-width="3" stroke-linejoin="round" stroke-dasharray="12 12"/>
<path d="M73.568 45C41.3392 99.5614 113.318 132.565 73.568 181.5M131.068 46C98.8392 100.561 170.818 133.565 131.068 182.5M102.568 46C70.3392 100.561 142.318 133.565 102.568 182.5" stroke="black" stroke-width="7"/>
</svg>
