<?xml version="1.0" standalone="no"?>
<!DOCTYPE svg PUBLIC "-//W3C//DTD SVG 20010904//EN"
 "http://www.w3.org/TR/2001/REC-SVG-20010904/DTD/svg10.dtd">
<svg version="1.0" xmlns="http://www.w3.org/2000/svg"
 width="512.000000pt" height="512.000000pt" viewBox="0 0 512.000000 512.000000"
 preserveAspectRatio="xMidYMid meet">

<g transform="translate(0.000000,512.000000) scale(0.100000,-0.100000)"
fill="#000000" stroke="none">
<path d="M3265 4794 c-16 -2 -73 -9 -125 -15 -98 -11 -298 -47 -313 -56 -17
-10 184 -326 343 -538 304 -405 748 -849 1161 -1160 158 -119 368 -259 376
-251 8 8 30 106 52 231 77 437 38 842 -110 1136 -61 122 -128 215 -222 306
-174 169 -386 273 -660 324 -107 19 -423 34 -502 23z"/>
<path d="M2480 4621 c-330 -117 -644 -277 -917 -465 -94 -65 -96 -69 -67 -180
28 -108 90 -212 179 -302 71 -71 95 -88 200 -139 103 -51 130 -69 195 -134
115 -115 174 -248 199 -446 28 -222 139 -427 294 -542 112 -83 246 -133 358
-133 254 0 469 -137 608 -387 89 -160 214 -281 364 -354 78 -38 177 -65 201
-56 32 12 230 335 337 550 94 188 220 497 219 539 -1 7 -43 39 -96 71 -691
425 -1522 1288 -1880 1954 -21 40 -43 73 -49 72 -5 0 -71 -22 -145 -48z m-127
-495 c18 -7 45 -28 60 -45 94 -112 22 -271 -123 -271 -142 0 -216 160 -125
268 48 57 122 76 188 48z m732 -979 c86 -49 110 -164 50 -242 -36 -48 -85 -68
-148 -62 -109 10 -176 119 -136 224 34 92 146 130 234 80z m926 -708 c118 -40
155 -180 71 -268 -106 -111 -282 -43 -282 109 0 76 38 131 107 156 47 16 61
17 104 3z"/>
<path d="M1254 3924 c-179 -146 -455 -449 -578 -635 l-37 -57 36 -98 c132
-356 380 -754 727 -1166 141 -168 533 -561 698 -699 334 -281 607 -467 902
-615 115 -58 136 -65 159 -57 38 15 210 131 309 209 100 80 395 373 462 460
l47 62 -70 22 c-143 46 -329 183 -433 319 -23 31 -64 93 -91 139 -53 92 -126
178 -190 222 -75 52 -140 71 -270 80 -136 10 -222 33 -336 90 -260 131 -438
398 -484 725 -35 249 -116 369 -316 467 -107 52 -200 118 -260 186 -89 100
-162 233 -192 353 l-13 49 -70 -56z"/>
<path d="M485 2949 c-319 -711 -165 -1469 415 -2049 397 -398 885 -601 1384
-576 191 9 417 59 590 129 l58 24 -98 53 c-740 398 -1562 1182 -2034 1942 -90
144 -194 338 -240 448 -18 41 -35 79 -39 83 -5 4 -20 -20 -36 -54z"/>
</g>
</svg>
