<svg width="172" height="171" viewBox="0 0 172 171" fill="none" xmlns="http://www.w3.org/2000/svg">
<path d="M86.5644 3.05457C11.8283 -2.54054 -8.0918 12.7642 6.40501 82.0219C16.5956 142.792 34.374 142.794 74.1969 119.889C103.326 115.553 114.519 107.553 124.125 82.0219C161.776 29.5872 158.878 10.0996 86.5644 3.05457Z" fill="#FFD700" stroke="#FFD700" stroke-width="3"/>
<path d="M83.8713 17.1717C26.5395 12.8906 11.2583 24.601 22.3792 77.5936C30.1967 124.092 43.8348 124.094 74.3839 106.568C96.7296 103.25 105.316 97.1288 112.685 77.5936C141.568 37.4732 139.344 22.5622 83.8713 17.1717Z" stroke="black" stroke-width="3" stroke-dasharray="12 12"/>
<mask id="path-3-inside-1" fill="white">
<path d="M35.9204 40.2391C32.7516 42.966 30.6836 46.1071 29.5432 49.8758C28.3965 53.6859 28.1968 57.4355 28.9371 61.4972C29.5187 64.6955 30.5449 67.2845 32.2244 69.7965C33.8805 72.2767 35.9402 74.0919 38.5719 75.3877C39.4576 75.8256 39.7539 76.0116 39.6273 76.0559C38.2729 76.5269 36.5324 77.6868 35.732 78.6441C34.6728 79.9147 34.0394 81.4474 33.7938 83.307C33.29 87.1091 34.6225 91.825 37.5013 96.4798C38.4142 97.9514 39.9677 99.9435 41.0513 101.032C43.9482 103.934 47.2159 105.594 51.1134 106.165C54.2331 106.612 57.3754 106.208 60.1852 104.971C61.0004 104.615 61.3671 104.382 62.6127 103.464C63.9615 102.47 64.1402 102.314 64.7656 101.534C65.1459 101.07 65.6285 100.396 65.8364 100.047C67.1433 97.8833 67.7211 95.1786 67.4375 92.4345C67.3918 91.9904 67.3519 91.5541 67.3448 91.4614C67.3301 91.3251 67.3794 91.3256 67.5854 91.4556C70.946 93.5744 76.0403 94.1585 81.1405 93.0228C90.5114 90.9214 98.8226 84.0257 99.9325 77.4245C100.19 75.8628 100.082 74.2386 99.6239 72.8854C99.3541 72.104 98.6957 70.8614 98.1632 70.1387L97.6717 69.4716L98.005 69.4588C100.198 69.4114 105.277 67.2499 108.97 64.7861C114.144 61.3414 117.305 55.6797 117.466 49.5689C117.637 43.3044 115.424 38.2572 110.603 33.8572C105.496 29.2022 98.5156 26.5401 92.2843 26.8551C87.7572 27.0907 83.8791 29.0045 81.325 32.2833C80.9663 32.7436 80.6616 33.1274 80.6537 33.1333C80.6378 33.145 80.5086 32.7868 80.3584 32.3338C79.0847 28.3955 75.0109 25.724 70.5393 25.9187C69.1271 25.979 67.6372 26.366 66.0461 27.0973C64.918 27.6099 63.0798 28.903 62.2824 29.7479C61.6043 30.4558 60.703 31.708 60.2326 32.5815C59.3799 34.1655 58.7677 36.4913 58.7418 38.2504L58.725 39.1082L58.0108 38.4213C54.1428 34.6669 48.2924 33.9538 42.0926 36.4878C40.0273 37.3233 37.5267 38.8472 35.9204 40.2391ZM40.7833 38.9474C43.3161 37.5836 46.6817 36.6355 48.9194 36.6654C50.0727 36.6856 51.6752 36.9997 52.6891 37.4289C55.0041 38.3944 57.4374 40.5837 59.3138 43.3795C60.0599 44.5085 60.0737 44.5105 60.4104 44.5688C60.8101 44.6296 61.2561 44.3377 61.3499 43.95C61.4171 43.6922 61.0269 42.6809 60.6838 42.1986C60.3268 41.7141 60.2465 38.465 60.5507 36.9175C61.1242 34.0076 62.5084 31.7992 64.8093 30.1039C66.4675 28.8821 68.2976 28.1096 70.0936 27.889C71.2285 27.7512 73.5804 28.0524 74.5471 28.4673C75.8832 29.0512 76.2242 29.3146 77.061 30.4503C77.7632 31.4033 77.8388 31.5558 78.1061 32.4004C78.4039 33.3695 78.9822 36.4969 78.8958 36.6953C78.8716 36.7621 78.8955 36.9773 78.9373 37.167C79.111 37.8845 80.14 38.1679 80.5625 37.6116C80.6581 37.4921 80.8083 37.1976 80.9009 36.9578C81.2251 36.1185 82.0657 34.568 82.6122 33.7977C84.176 31.5673 86.3023 30.0006 88.8028 29.2242C89.9117 28.885 91.4634 28.6484 92.7157 28.6202C94.0507 28.6046 97.0284 29.0573 98.5231 29.5243C105.395 31.641 111.783 36.9209 114.336 42.6122C116.957 48.4125 115.641 55.6805 111.079 60.671C110.335 61.4888 107.491 63.6092 105.833 64.5982C100.955 67.4814 97.8634 68.4359 96.2043 67.5631C95.786 67.3444 95.5676 67.2971 95.2752 67.3654C94.6608 67.5118 94.3568 67.797 94.3174 68.2917C94.2745 68.7154 94.2804 68.7233 94.7827 69.2722C95.0681 69.5765 95.6792 70.3393 96.1393 70.9805C96.8298 71.9176 97.038 72.2666 97.2697 72.8801C98.1558 75.2292 97.9576 77.5685 96.6534 80.1347C95.8499 81.7191 94.4434 83.5151 92.7466 85.133C91.5603 86.2643 88.7621 88.2648 87.2612 89.0521C81.0575 92.312 74.4954 92.8094 68.9876 90.4347C68.4708 90.2151 67.7814 89.8776 67.4576 89.6873L66.861 89.3427L66.6786 88.7297C66.454 87.9762 66.2889 87.9017 65.8869 88.3695C65.7416 88.5378 65.5094 88.7212 65.3728 88.785C65.0383 88.9457 64.9633 89.4421 65.2354 89.695C65.4038 89.8405 65.4298 90.0419 65.4042 90.7714C65.3865 91.2624 65.4329 92.3554 65.5051 93.1844C65.7851 96.3722 65.4816 97.8211 64.0932 99.8244C62.2919 102.414 59.7909 103.987 56.505 104.594C52.1903 105.384 47.3075 104.007 43.8179 101.015C42.3687 99.7796 41.5186 98.8253 40.0382 96.8161C38.9227 95.2854 38.5097 94.6585 37.9892 93.6697C35.9269 89.7243 35.1644 86.4632 35.6506 83.6176C36.1656 80.6282 37.9977 78.6289 41.1865 77.5905C41.734 77.4198 42.5422 77.2042 42.9766 77.1292C43.9895 76.9588 44.3127 76.7329 44.3684 76.1772C44.45 75.3575 43.9553 75.0848 42.7607 75.2911C42.1605 75.3902 42.0581 75.3676 41.0993 74.9468C38.6924 73.8898 36.9734 72.62 35.2089 70.624C30.5215 65.2923 29.2725 56.5694 32.1255 48.9779C33.3726 45.6697 35.0324 43.2705 37.6455 41.0021C38.2054 40.516 39.809 39.4692 40.7833 38.9474Z"/>
</mask>
<path d="M35.9204 40.2391C32.7516 42.966 30.6836 46.1071 29.5432 49.8758C28.3965 53.6859 28.1968 57.4355 28.9371 61.4972C29.5187 64.6955 30.5449 67.2845 32.2244 69.7965C33.8805 72.2767 35.9402 74.0919 38.5719 75.3877C39.4576 75.8256 39.7539 76.0116 39.6273 76.0559C38.2729 76.5269 36.5324 77.6868 35.732 78.6441C34.6728 79.9147 34.0394 81.4474 33.7938 83.307C33.29 87.1091 34.6225 91.825 37.5013 96.4798C38.4142 97.9514 39.9677 99.9435 41.0513 101.032C43.9482 103.934 47.2159 105.594 51.1134 106.165C54.2331 106.612 57.3754 106.208 60.1852 104.971C61.0004 104.615 61.3671 104.382 62.6127 103.464C63.9615 102.47 64.1402 102.314 64.7656 101.534C65.1459 101.07 65.6285 100.396 65.8364 100.047C67.1433 97.8833 67.7211 95.1786 67.4375 92.4345C67.3918 91.9904 67.3519 91.5541 67.3448 91.4614C67.3301 91.3251 67.3794 91.3256 67.5854 91.4556C70.946 93.5744 76.0403 94.1585 81.1405 93.0228C90.5114 90.9214 98.8226 84.0257 99.9325 77.4245C100.19 75.8628 100.082 74.2386 99.6239 72.8854C99.3541 72.104 98.6957 70.8614 98.1632 70.1387L97.6717 69.4716L98.005 69.4588C100.198 69.4114 105.277 67.2499 108.97 64.7861C114.144 61.3414 117.305 55.6797 117.466 49.5689C117.637 43.3044 115.424 38.2572 110.603 33.8572C105.496 29.2022 98.5156 26.5401 92.2843 26.8551C87.7572 27.0907 83.8791 29.0045 81.325 32.2833C80.9663 32.7436 80.6616 33.1274 80.6537 33.1333C80.6378 33.145 80.5086 32.7868 80.3584 32.3338C79.0847 28.3955 75.0109 25.724 70.5393 25.9187C69.1271 25.979 67.6372 26.366 66.0461 27.0973C64.918 27.6099 63.0798 28.903 62.2824 29.7479C61.6043 30.4558 60.703 31.708 60.2326 32.5815C59.3799 34.1655 58.7677 36.4913 58.7418 38.2504L58.725 39.1082L58.0108 38.4213C54.1428 34.6669 48.2924 33.9538 42.0926 36.4878C40.0273 37.3233 37.5267 38.8472 35.9204 40.2391ZM40.7833 38.9474C43.3161 37.5836 46.6817 36.6355 48.9194 36.6654C50.0727 36.6856 51.6752 36.9997 52.6891 37.4289C55.0041 38.3944 57.4374 40.5837 59.3138 43.3795C60.0599 44.5085 60.0737 44.5105 60.4104 44.5688C60.8101 44.6296 61.2561 44.3377 61.3499 43.95C61.4171 43.6922 61.0269 42.6809 60.6838 42.1986C60.3268 41.7141 60.2465 38.465 60.5507 36.9175C61.1242 34.0076 62.5084 31.7992 64.8093 30.1039C66.4675 28.8821 68.2976 28.1096 70.0936 27.889C71.2285 27.7512 73.5804 28.0524 74.5471 28.4673C75.8832 29.0512 76.2242 29.3146 77.061 30.4503C77.7632 31.4033 77.8388 31.5558 78.1061 32.4004C78.4039 33.3695 78.9822 36.4969 78.8958 36.6953C78.8716 36.7621 78.8955 36.9773 78.9373 37.167C79.111 37.8845 80.14 38.1679 80.5625 37.6116C80.6581 37.4921 80.8083 37.1976 80.9009 36.9578C81.2251 36.1185 82.0657 34.568 82.6122 33.7977C84.176 31.5673 86.3023 30.0006 88.8028 29.2242C89.9117 28.885 91.4634 28.6484 92.7157 28.6202C94.0507 28.6046 97.0284 29.0573 98.5231 29.5243C105.395 31.641 111.783 36.9209 114.336 42.6122C116.957 48.4125 115.641 55.6805 111.079 60.671C110.335 61.4888 107.491 63.6092 105.833 64.5982C100.955 67.4814 97.8634 68.4359 96.2043 67.5631C95.786 67.3444 95.5676 67.2971 95.2752 67.3654C94.6608 67.5118 94.3568 67.797 94.3174 68.2917C94.2745 68.7154 94.2804 68.7233 94.7827 69.2722C95.0681 69.5765 95.6792 70.3393 96.1393 70.9805C96.8298 71.9176 97.038 72.2666 97.2697 72.8801C98.1558 75.2292 97.9576 77.5685 96.6534 80.1347C95.8499 81.7191 94.4434 83.5151 92.7466 85.133C91.5603 86.2643 88.7621 88.2648 87.2612 89.0521C81.0575 92.312 74.4954 92.8094 68.9876 90.4347C68.4708 90.2151 67.7814 89.8776 67.4576 89.6873L66.861 89.3427L66.6786 88.7297C66.454 87.9762 66.2889 87.9017 65.8869 88.3695C65.7416 88.5378 65.5094 88.7212 65.3728 88.785C65.0383 88.9457 64.9633 89.4421 65.2354 89.695C65.4038 89.8405 65.4298 90.0419 65.4042 90.7714C65.3865 91.2624 65.4329 92.3554 65.5051 93.1844C65.7851 96.3722 65.4816 97.8211 64.0932 99.8244C62.2919 102.414 59.7909 103.987 56.505 104.594C52.1903 105.384 47.3075 104.007 43.8179 101.015C42.3687 99.7796 41.5186 98.8253 40.0382 96.8161C38.9227 95.2854 38.5097 94.6585 37.9892 93.6697C35.9269 89.7243 35.1644 86.4632 35.6506 83.6176C36.1656 80.6282 37.9977 78.6289 41.1865 77.5905C41.734 77.4198 42.5422 77.2042 42.9766 77.1292C43.9895 76.9588 44.3127 76.7329 44.3684 76.1772C44.45 75.3575 43.9553 75.0848 42.7607 75.2911C42.1605 75.3902 42.0581 75.3676 41.0993 74.9468C38.6924 73.8898 36.9734 72.62 35.2089 70.624C30.5215 65.2923 29.2725 56.5694 32.1255 48.9779C33.3726 45.6697 35.0324 43.2705 37.6455 41.0021C38.2054 40.516 39.809 39.4692 40.7833 38.9474Z" fill="black"/>
<path d="M35.9204 40.2391L55.5659 62.9119L55.5273 62.9453L55.4887 62.9786L35.9204 40.2391ZM29.5432 49.8758L0.815897 41.2304L0.822415 41.2088L0.828966 41.1871L29.5432 49.8758ZM28.9371 61.4972L58.4509 56.118L58.4531 56.1299L28.9371 61.4972ZM32.2244 69.7965L57.1638 53.1224L57.1689 53.13L57.1739 53.1375L32.2244 69.7965ZM38.5719 75.3877L51.8231 48.4729L51.8453 48.4838L51.8674 48.4947L38.5719 75.3877ZM39.6273 76.0559L49.5254 104.376L49.5039 104.383L49.4824 104.391L39.6273 76.0559ZM35.732 78.6441L12.689 59.4342L12.7026 59.418L12.7162 59.4017L35.732 78.6441ZM33.7938 83.307L63.5354 87.2356L63.5338 87.2477L33.7938 83.307ZM37.5013 96.4798L12.0082 112.294L11.9974 112.277L11.9867 112.26L37.5013 96.4798ZM41.0513 101.032L19.8209 122.228L19.8053 122.212L19.7898 122.197L41.0513 101.032ZM51.1134 106.165L46.8669 135.863L46.8144 135.856L46.7618 135.848L51.1134 106.165ZM60.1852 104.971L48.0967 77.514L48.1436 77.4933L48.1906 77.4728L60.1852 104.971ZM64.7656 101.534L41.3673 82.7589L41.4648 82.6375L41.5634 82.5171L64.7656 101.534ZM65.8364 100.047L40.0579 84.7022L40.1072 84.6192L40.1571 84.5366L65.8364 100.047ZM67.4375 92.4345L37.5964 95.5183L37.5952 95.5065L67.4375 92.4345ZM67.3448 91.4614L97.1721 88.2471L97.2211 88.7022L97.2563 89.1585L67.3448 91.4614ZM67.5854 91.4556L51.5856 116.833L51.5779 116.828L51.5703 116.823L67.5854 91.4556ZM81.1405 93.0228L87.7047 122.296L87.683 122.301L87.6612 122.306L81.1405 93.0228ZM99.9325 77.4245L129.534 82.2967L129.526 82.3478L129.517 82.3988L99.9325 77.4245ZM99.6239 72.8854L127.982 63.0963L128.01 63.178L128.038 63.2598L99.6239 72.8854ZM97.6717 69.4716L73.5196 87.267L39.9204 41.6659L96.5212 39.4937L97.6717 69.4716ZM98.005 69.4588L96.8546 39.4809L97.1055 39.4713L97.3566 39.4659L98.005 69.4588ZM108.97 64.7861L92.321 39.8299L92.3329 39.822L92.3447 39.8141L108.97 64.7861ZM117.466 49.5689L87.4769 48.7763L87.4772 48.7642L87.4776 48.7521L117.466 49.5689ZM110.603 33.8572L130.812 11.6858L130.819 11.6921L130.826 11.6984L110.603 33.8572ZM92.2843 26.8551L90.7253 -3.10438L90.7476 -3.10554L90.7698 -3.10666L92.2843 26.8551ZM81.325 32.2833L104.992 50.7195L104.99 50.7214L81.325 32.2833ZM80.3584 32.3338L51.882 41.7729L51.8476 41.6691L51.814 41.5652L80.3584 32.3338ZM70.5393 25.9187L71.844 55.8903L71.8318 55.8908L71.8196 55.8914L70.5393 25.9187ZM66.0461 27.0973L78.5739 54.3563L78.5152 54.3833L78.4565 54.41L66.0461 27.0973ZM62.2824 29.7479L84.099 50.34L84.0235 50.42L83.9473 50.4996L62.2824 29.7479ZM60.2326 32.5815L33.8169 18.3615L33.8192 18.3571L60.2326 32.5815ZM58.7418 38.2504L88.7385 38.6932L88.7374 38.7647L88.736 38.8361L58.7418 38.2504ZM58.725 39.1082L88.7193 39.6939L87.3796 108.289L37.9296 60.731L58.725 39.1082ZM58.0108 38.4213L37.2154 60.0442L37.1656 59.9963L37.116 59.9482L58.0108 38.4213ZM42.0926 36.4878L53.4431 64.2577L53.3933 64.2781L53.3435 64.2982L42.0926 36.4878ZM40.7833 38.9474L55.0063 65.3615L54.9768 65.3774L54.9473 65.3932L40.7833 38.9474ZM48.9194 36.6654L49.3203 6.66805L49.3824 6.66888L49.4446 6.66997L48.9194 36.6654ZM52.6891 37.4289L41.1415 65.1174L41.0684 65.0869L40.9955 65.056L52.6891 37.4289ZM59.3138 43.3795L84.2238 26.6616L84.2831 26.7499L84.3416 26.8385L59.3138 43.3795ZM60.4104 44.5688L55.9013 74.228L55.5987 74.182L55.297 74.1298L60.4104 44.5688ZM61.3499 43.95L32.1915 36.8942L32.2528 36.6408L32.3185 36.3884L61.3499 43.95ZM60.6838 42.1986L84.8359 24.4031L84.984 24.6042L85.1288 24.8077L60.6838 42.1986ZM60.5507 36.9175L31.1143 31.13L31.1169 31.1165L60.5507 36.9175ZM70.0936 27.889L66.4367 -1.8873L66.4576 -1.88988L66.4786 -1.89243L70.0936 27.889ZM74.5471 28.4673L86.3798 0.899425L86.4706 0.938419L86.5612 0.97801L74.5471 28.4673ZM78.1061 32.4004L106.708 23.3486L106.746 23.4678L106.782 23.5873L78.1061 32.4004ZM78.8958 36.6953L50.6874 26.4832L51.0104 25.591L51.3891 24.721L78.8958 36.6953ZM78.9373 37.167L49.7793 44.2244L49.7075 43.9279L49.6418 43.63L78.9373 37.167ZM80.5625 37.6116L56.6705 19.4684L56.9016 19.1641L57.1403 18.8658L80.5625 37.6116ZM82.6122 33.7977L107.176 51.0197L107.128 51.0884L107.08 51.1569L82.6122 33.7977ZM88.8028 29.2242L79.9071 0.573434L79.9676 0.554635L80.0282 0.536092L88.8028 29.2242ZM92.7157 28.6202L92.0397 -1.37216L92.2018 -1.37582L92.364 -1.37772L92.7157 28.6202ZM98.5231 29.5243L89.6924 58.1951L89.6344 58.1773L89.5766 58.1592L98.5231 29.5243ZM114.336 42.6122L86.9978 54.9662L86.9808 54.9286L86.9639 54.891L114.336 42.6122ZM111.079 60.671L88.8892 40.482L88.9123 40.4566L88.9355 40.4313L111.079 60.671ZM105.833 64.5982L121.199 90.3636L121.149 90.3938L121.098 90.4238L105.833 64.5982ZM96.2043 67.5631L110.107 40.9792L110.139 40.996L110.172 41.0129L96.2043 67.5631ZM95.2752 67.3654L88.323 38.1821L88.3829 38.1678L88.4428 38.1538L95.2752 67.3654ZM94.3174 68.2917L124.222 70.6776L124.197 70.994L124.165 71.3099L94.3174 68.2917ZM94.7827 69.2722L72.9013 89.7954L72.776 89.6618L72.6523 89.5267L94.7827 69.2722ZM96.1393 70.9805L71.9872 88.7759L71.8761 88.6251L71.7669 88.473L96.1393 70.9805ZM97.2697 72.8801L125.335 62.2814L125.339 62.2913L97.2697 72.8801ZM96.6534 80.1347L69.8965 66.5674L69.903 66.5547L69.9094 66.542L96.6534 80.1347ZM92.7466 85.133L72.0416 63.4234L72.0449 63.4203L92.7466 85.133ZM87.2612 89.0521L73.3064 62.4953L73.316 62.4903L73.3255 62.4853L87.2612 89.0521ZM68.9876 90.4347L80.7204 62.8242L80.7929 62.855L80.8653 62.8862L68.9876 90.4347ZM67.4576 89.6873L82.4612 63.7086L82.5588 63.7649L82.6559 63.822L67.4576 89.6873ZM66.861 89.3427L51.8574 115.321L41.513 109.347L38.1066 97.8975L66.861 89.3427ZM66.6786 88.7297L95.428 80.1582L95.4305 80.1665L95.433 80.1748L66.6786 88.7297ZM65.8869 88.3695L88.6381 107.924L88.6173 107.948L88.5964 107.972L65.8869 88.3695ZM65.3728 88.785L52.382 61.7436L52.523 61.6759L52.6646 61.6096L65.3728 88.785ZM65.2354 89.695L45.623 112.396L45.2091 112.039L44.8084 111.666L65.2354 89.695ZM65.4042 90.7714L95.3858 91.8227L95.3852 91.839L95.3846 91.8552L65.4042 90.7714ZM65.5051 93.1844L35.6201 95.8094L35.6192 95.7985L35.6182 95.7876L65.5051 93.1844ZM64.0932 99.8244L88.7499 116.914L88.735 116.935L88.72 116.957L64.0932 99.8244ZM56.505 104.594L61.96 134.094L61.9331 134.099L61.9062 134.104L56.505 104.594ZM43.8179 101.015L63.284 78.1885L63.3139 78.2141L63.3438 78.2396L43.8179 101.015ZM40.0382 96.8161L15.8861 114.611L15.8398 114.549L15.7939 114.486L40.0382 96.8161ZM37.9892 93.6697L11.4421 107.643L11.4222 107.605L11.4024 107.567L37.9892 93.6697ZM35.6506 83.6176L6.07924 78.5647L6.08269 78.5445L6.08616 78.5243L35.6506 83.6176ZM41.1865 77.5905L31.897 49.065L32.0787 49.0058L32.2611 48.9489L41.1865 77.5905ZM42.9766 77.1292L37.8724 47.5666L37.9359 47.5557L37.9994 47.545L42.9766 77.1292ZM44.3684 76.1772L74.2212 79.1458L74.22 79.1584L74.2187 79.171L44.3684 76.1772ZM42.7607 75.2911L47.8649 104.854L47.7577 104.872L47.6504 104.89L42.7607 75.2911ZM41.0993 74.9468L29.0432 102.418L29.0364 102.415L41.0993 74.9468ZM35.2089 70.624L12.7321 90.4934L12.705 90.4628L12.678 90.4321L35.2089 70.624ZM32.1255 48.9779L4.04321 38.4241L4.04854 38.4099L4.05388 38.3957L32.1255 48.9779ZM55.4887 62.9786C55.8039 62.7073 56.392 62.1263 56.9987 61.2082C57.6149 60.2759 58.0227 59.3402 58.2574 58.5646L0.828966 41.1871C3.70414 31.6853 9.08479 23.7535 16.3521 17.4996L55.4887 62.9786ZM58.2705 58.5213C58.3548 58.2411 58.4602 57.7577 58.4914 57.1626C58.5222 56.5758 58.4644 56.1918 58.4509 56.118L-0.576672 66.8764C-2.14122 58.2922 -1.74201 49.7299 0.815897 41.2304L58.2705 58.5213ZM58.4531 56.1299C58.4377 56.0454 58.3393 55.5595 58.0602 54.855C57.7729 54.1299 57.4354 53.5286 57.1638 53.1224L7.28495 86.4706C3.15642 80.2955 0.682701 73.802 -0.578851 66.8644L58.4531 56.1299ZM57.1739 53.1375C56.6661 52.377 55.9075 51.4455 54.8632 50.5255C53.8149 49.602 52.75 48.9292 51.8231 48.4729L25.3207 102.302C17.8665 98.6324 11.8051 93.2402 7.27488 86.4555L57.1739 53.1375ZM51.8674 48.4947C52.1938 48.6561 53.8307 49.4503 55.507 50.5097C56.0221 50.8353 56.9242 51.4243 57.9763 52.2409C58.7605 52.8495 61.0316 54.6437 63.2875 57.5332C64.5845 59.1946 72.021 68.795 68.9284 82.5934C65.4661 98.0415 52.7284 103.256 49.5254 104.376L29.7293 47.7357C26.5579 48.8442 13.8386 54.0437 10.3809 69.4714C7.29286 83.2495 14.72 92.8246 15.9933 94.4555C18.2253 97.3146 20.4581 99.0729 21.1888 99.64C22.1874 100.415 23.0209 100.957 23.4515 101.229C24.7899 102.075 25.8357 102.557 25.2764 102.281L51.8674 48.4947ZM49.4824 104.391C51.8184 103.578 53.3243 102.654 54.0851 102.148C54.5765 101.821 55.1718 101.39 55.844 100.822C56.4509 100.31 57.5322 99.3406 58.7479 97.8865L12.7162 59.4017C15.6483 55.8946 18.8445 53.5272 20.8587 52.1876C23.0284 50.7446 26.0818 49.0043 29.7723 47.7208L49.4824 104.391ZM58.775 97.854C61.856 94.1583 63.1491 90.1602 63.5354 87.2356L4.05211 79.3785C4.9297 72.7346 7.4897 65.671 12.689 59.4342L58.775 97.854ZM63.5338 87.2477C63.9324 84.2395 63.4659 82.1871 63.2549 81.4381C63.023 80.6149 62.8329 80.4039 63.0159 80.6999L11.9867 112.26C7.01084 104.214 2.31768 92.4683 4.05371 79.3664L63.5338 87.2477ZM62.9944 80.6651C62.8328 80.4047 62.748 80.2879 62.7687 80.3172C62.779 80.3317 62.8168 80.3838 62.8694 80.4512C62.9237 80.5208 62.9417 80.5401 62.9057 80.4983C62.8849 80.4742 62.8319 80.4131 62.7465 80.3199C62.6645 80.2304 62.5185 80.0739 62.3129 79.8673L19.7898 122.197C16.9077 119.302 13.9736 115.463 12.0082 112.294L62.9944 80.6651ZM62.2818 79.8362C61.7296 79.283 60.7491 78.4673 59.3298 77.7439C57.8959 77.0131 56.5275 76.6385 55.4649 76.4827L46.7618 135.848C36.2449 134.306 27.1192 129.538 19.8209 122.228L62.2818 79.8362ZM55.3598 76.4675C53.1908 76.1573 50.6497 76.3899 48.0967 77.514L72.2737 132.427C64.101 136.026 55.2753 137.066 46.8669 135.863L55.3598 76.4675ZM48.1906 77.4728C48.0572 77.531 47.6308 77.7193 47.0653 78.0087C46.4571 78.32 45.8879 78.6453 45.3781 78.9628C44.9178 79.2495 44.6116 79.4644 44.5516 79.5066C44.5045 79.5398 44.5533 79.5063 44.8173 79.3117L80.4081 127.616C78.6217 128.932 76.1078 130.755 72.1798 132.468L48.1906 77.4728ZM44.8173 79.3117C45.1599 79.0593 45.1882 79.0359 45.1205 79.0881C45.032 79.1563 44.5698 79.513 43.96 80.0585C43.2635 80.6814 42.6218 81.3275 42.0549 81.9576C41.5917 82.4722 41.2884 82.8573 41.3673 82.7589L88.1639 120.31C87.5712 121.049 86.1346 122.835 83.9609 124.779C82.4012 126.174 80.7819 127.34 80.4081 127.616L44.8173 79.3117ZM41.5634 82.5171C41.2553 82.8931 41.0799 83.1347 41.004 83.2404C40.949 83.3169 40.8602 83.4423 40.7418 83.6183C40.6542 83.7487 40.3924 84.1401 40.0579 84.7022L91.6149 115.392C90.4256 117.39 88.9865 119.309 87.9678 120.552L41.5634 82.5171ZM40.1571 84.5366C37.8346 88.3817 37.263 92.292 37.5964 95.5183L97.2786 89.3508C98.1792 98.0652 96.452 107.385 91.5157 115.558L40.1571 84.5366ZM37.5952 95.5065C37.5426 94.9957 37.4708 94.2512 37.4333 93.7642L97.2563 89.1585C97.2508 89.0875 97.2463 89.0332 97.2442 89.007C97.2417 88.9771 97.2398 88.9546 97.2387 88.9423C97.2366 88.9182 97.2356 88.9068 97.2361 88.912C97.2369 88.9213 97.2399 88.9537 97.2448 89.0059C97.2548 89.1127 97.2676 89.2439 97.2798 89.3625L37.5952 95.5065ZM37.5175 94.6756C37.4759 94.29 36.6516 88.5084 38.9274 81.7766C40.3233 77.6478 43.3022 71.904 49.3724 67.3562C55.5274 62.7449 62.0706 61.4506 66.8348 61.3636C74.5049 61.2236 80.0857 64.164 80.5644 64.3965C82.1333 65.1584 83.3052 65.9016 83.6005 66.088L51.5703 116.823C51.7625 116.945 52.8511 117.639 54.3532 118.368C54.7652 118.569 60.296 121.493 67.9299 121.354C72.676 121.267 79.2045 119.977 85.3479 115.375C91.4065 110.835 94.3769 105.105 95.767 100.993C98.0313 94.2952 97.2063 88.5646 97.1721 88.2471L37.5175 94.6756ZM83.5852 66.0783C80.6667 64.2383 78.2434 63.7836 77.1483 63.6572C75.9399 63.5179 75.1194 63.6287 74.6198 63.74L87.6612 122.306C77.3987 124.591 63.58 124.395 51.5856 116.833L83.5852 66.0783ZM74.5762 63.7497C74.5364 63.7586 74.6603 63.6723 74.4751 63.8259C74.3272 63.9487 73.7144 64.4759 72.9555 65.6037C72.2277 66.6855 70.9319 68.9758 70.3478 72.4502L129.517 82.3988C127.322 95.4549 119.204 104.676 112.794 109.996C105.833 115.773 97.1154 120.186 87.7047 122.296L74.5762 63.7497ZM70.3308 72.5523C69.8875 75.2453 69.9043 78.6566 71.21 82.511L128.038 63.2598C130.26 69.8206 130.492 76.4803 129.534 82.2967L70.3308 72.5523ZM71.266 82.6746C71.593 83.622 71.8919 84.3036 72.0436 84.6376C72.2172 85.0197 72.3712 85.3249 72.4982 85.5639C72.6262 85.8049 72.7837 86.0859 72.9831 86.412C73.1635 86.707 73.5047 87.2468 74.0111 87.9341L122.315 52.3433C124.534 55.3546 126.663 59.2753 127.982 63.0963L71.266 82.6746ZM74.0111 87.9341L73.5196 87.267L121.824 51.6762L122.315 52.3433L74.0111 87.9341ZM96.5212 39.4937L96.8546 39.4809L99.1555 99.4368L98.8221 99.4496L96.5212 39.4937ZM97.3566 39.4659C95.4417 39.5073 94.0041 39.7478 93.289 39.8853C92.4972 40.0376 91.9354 40.193 91.6563 40.2751C91.1206 40.4327 90.9561 40.5186 91.168 40.4284C91.3354 40.3571 91.5936 40.2363 91.8764 40.0853C92.0091 40.0145 92.1211 39.9508 92.2072 39.8997C92.2948 39.8477 92.3324 39.8224 92.321 39.8299L125.619 89.7422C122.063 92.1148 118.204 94.1284 114.682 95.6289C112.462 96.5744 106.004 99.2929 98.6535 99.4518L97.3566 39.4659ZM92.3447 39.8141C89.5587 41.6689 87.5783 44.9411 87.4769 48.7763L147.456 50.3615C147.032 66.4182 138.729 81.0139 125.595 89.758L92.3447 39.8141ZM87.4776 48.7521C87.4571 49.5016 87.586 51.1269 88.4192 53.0326C89.2318 54.891 90.2097 55.8611 90.3794 56.016L130.826 11.6984C141.747 21.6658 147.875 34.96 147.455 50.3857L87.4776 48.7521ZM90.3932 56.0286C90.7029 56.3109 90.9303 56.4296 91.1597 56.5173C91.3499 56.5899 92.2079 56.8972 93.7987 56.8168L90.7698 -3.10666C105.86 -3.8694 120.468 2.25642 130.812 11.6858L90.3932 56.0286ZM93.8432 56.8146C97.0655 56.6469 101.643 55.018 104.992 50.7195L57.6584 13.8471C66.1152 2.99111 78.4488 -2.46558 90.7253 -3.10438L93.8432 56.8146ZM104.99 50.7214C104.767 51.0071 104.556 51.2766 104.386 51.4917C104.305 51.594 104.208 51.7153 104.114 51.8332C104.075 51.8814 103.985 51.9934 103.877 52.1256C103.836 52.1754 103.701 52.3408 103.526 52.5468C103.454 52.6309 103.24 52.8826 102.958 53.1964C102.828 53.3407 102.528 53.672 102.131 54.0793C101.932 54.2826 101.585 54.6333 101.136 55.0529C100.813 55.3548 99.83 56.2679 98.4491 57.2854L62.8582 8.98118C61.4774 9.99859 60.4945 10.9115 60.1717 11.2132C59.7228 11.6326 59.3758 11.9831 59.1777 12.1862C58.7811 12.5928 58.4817 12.9235 58.3527 13.0668C58.072 13.3789 57.8601 13.628 57.7915 13.7089C57.6221 13.9084 57.4942 14.0644 57.4632 14.1023C57.3745 14.2106 57.3125 14.288 57.3091 14.2922C57.2851 14.3222 57.2889 14.3176 57.3301 14.2657C57.4039 14.1724 57.5239 14.0197 57.6599 13.8452L104.99 50.7214ZM98.4491 57.2854C86.6441 65.9833 73.9457 63.2416 67.4972 60.0954C62.2195 57.5205 59.0994 54.0458 58.2043 53.0365C55.9668 50.5135 54.6864 48.1706 54.4587 47.7634C53.6478 46.3134 53.1356 45.1003 53.041 44.8792C52.7038 44.0913 52.4626 43.4333 52.3903 43.2361C52.1839 42.673 52.0033 42.1387 51.882 41.7729L108.835 22.8948C108.864 22.982 108.823 22.8532 108.722 22.5795C108.703 22.527 108.507 21.9847 108.203 21.2748C108.125 21.0927 107.627 19.9092 106.826 18.4783C106.604 18.0807 105.328 15.7447 103.094 13.2259C102.201 12.2187 99.0828 8.74543 93.8064 6.17116C90.9011 4.75365 86.251 3.07378 80.3412 3.13517C73.9732 3.20132 67.8702 5.28834 62.8582 8.98118L98.4491 57.2854ZM51.814 41.5652C55.1186 51.7833 64.2676 56.2201 71.844 55.8903L69.2347 -4.05293C85.7541 -4.77201 103.051 5.00782 108.903 23.1024L51.814 41.5652ZM71.8196 55.8914C75.0408 55.7538 77.3734 54.9081 78.5739 54.3563L53.5183 -0.161709C57.9011 -2.17598 63.2133 -3.79575 69.2591 -4.05399L71.8196 55.8914ZM78.4565 54.41C79.5581 53.9094 80.2914 53.4766 80.5544 53.3185C80.89 53.1167 81.1333 52.9531 81.3099 52.8288C81.4836 52.7065 81.7429 52.5165 82.0858 52.235C82.3402 52.0261 83.1187 51.3786 84.099 50.34L40.4657 9.15585C42.8766 6.60158 45.4065 4.72752 46.7706 3.76717C48.215 2.75036 50.6739 1.13042 53.6356 -0.215344L78.4565 54.41ZM83.9473 50.4996C84.4886 49.9344 84.8541 49.4955 85.0334 49.2746C85.2348 49.0265 85.3861 48.8251 85.4995 48.668C85.6137 48.5099 85.7482 48.3156 85.9052 48.071C86.0462 47.8511 86.3151 47.4203 86.646 46.8058L33.8192 18.3571C35.5049 15.227 37.9755 11.7545 40.6174 8.99624L83.9473 50.4996ZM86.6484 46.8015C87.5764 45.0775 87.9889 43.7473 88.1901 42.9824C88.3865 42.236 88.7075 40.7932 88.7385 38.6932L28.745 37.8075C28.8438 31.1152 30.7401 24.077 33.8169 18.3615L86.6484 46.8015ZM88.736 38.8361L88.7193 39.6939L28.7307 38.5224L28.7475 37.6646L88.736 38.8361ZM37.9296 60.731L37.2154 60.0442L78.8063 16.7984L79.5205 17.4853L37.9296 60.731ZM37.116 59.9482C40.1518 62.8948 43.9019 64.4633 47.3055 64.8771C50.4963 65.265 52.6471 64.5831 53.4431 64.2577L30.7421 8.71796C44.7033 3.01154 64.2057 2.62613 78.9056 16.8944L37.116 59.9482ZM53.3435 64.2982C53.7847 64.1197 54.0609 63.9824 54.1753 63.9237C54.3014 63.859 54.3774 63.8145 54.4243 63.786C54.4704 63.758 54.5597 63.702 54.7026 63.6C54.8309 63.5084 55.1345 63.2857 55.5659 62.9119L16.2749 17.5663C20.4611 13.9391 25.8187 10.7095 30.8417 8.67747L53.3435 64.2982ZM26.5603 12.5333C32.2865 9.44996 40.688 6.55267 49.3203 6.66805L48.5184 66.6627C50.0659 66.6834 51.1872 66.5378 51.7493 66.4488C52.368 66.3509 52.8058 66.2415 53.0735 66.1663C53.5039 66.0454 54.1135 65.8423 55.0063 65.3615L26.5603 12.5333ZM49.4446 6.66997C53.9779 6.74935 59.4315 7.70604 64.3828 9.80178L40.9955 65.056C42.0746 65.5128 42.9421 65.7887 43.4808 65.9448C44.0548 66.1112 44.5473 66.2258 44.9561 66.3078C45.6175 66.4405 46.7679 66.6323 48.3942 66.6608L49.4446 6.66997ZM64.2368 9.74042C73.5794 13.6368 80.1827 20.6403 84.2238 26.6616L34.4037 60.0974C34.7532 60.6182 35.28 61.2825 36.1135 62.0315C36.8645 62.7064 38.4867 64.0102 41.1415 65.1174L64.2368 9.74042ZM84.3416 26.8385C84.5735 27.1893 84.5021 27.077 84.3604 26.8738C84.3474 26.8551 83.424 25.4906 81.9615 23.9214C80.1094 21.9342 76.8908 19.0452 72.0903 16.9733C68.2658 15.3225 64.5933 14.8468 65.5237 15.0078L55.297 74.1298C55.2958 74.1296 55.2409 74.1201 55.1798 74.1094C55.114 74.0978 55.0038 74.0782 54.8688 74.0531C54.6106 74.0051 54.1452 73.9156 53.5704 73.7834C52.3866 73.511 50.5054 73.0071 48.3135 72.061C43.3924 69.937 40.0606 66.966 38.0697 64.8299C36.4684 63.1119 35.3806 61.5315 35.1446 61.1931C34.78 60.6702 34.4271 60.1342 34.2859 59.9205L84.3416 26.8385ZM64.9195 14.9096C56.5893 13.6432 49.4306 16.1288 44.5183 19.3573C39.6248 22.5733 34.2675 28.3149 32.1915 36.8942L90.5084 51.0058C88.3386 59.9728 82.7114 66.0542 77.4715 69.4979C72.2128 72.954 64.6312 75.5552 55.9013 74.228L64.9195 14.9096ZM32.3185 36.3884C31.0344 41.3188 31.3658 45.3219 31.4815 46.5761C31.644 48.3383 31.9342 49.7147 32.1146 50.484C32.4822 52.0517 32.9027 53.228 33.1491 53.8725C33.5103 54.817 34.3958 56.9988 36.2388 59.5894L85.1288 24.8077C87.3149 27.8806 88.5671 30.8093 89.1923 32.4445C89.5708 33.4344 90.0977 34.9419 90.5303 36.7868C90.7431 37.6948 91.0555 39.1962 91.2278 41.0649C91.3534 42.4257 91.6823 46.5168 90.3813 51.5116L32.3185 36.3884ZM36.5317 59.994C32.88 55.0379 31.7147 50.1653 31.5194 49.4104C31.0726 47.6834 30.8487 46.2204 30.7333 45.3555C30.4925 43.5516 30.4088 41.9092 30.3787 40.707C30.3297 38.748 30.3458 35.0387 31.1143 31.13L89.9872 42.705C90.2828 41.2016 90.3363 40.1777 90.346 40.0051C90.3646 39.673 90.3654 39.4275 90.3599 39.2064C90.3565 39.0704 90.3407 38.4279 90.2059 37.4178C90.1435 36.9498 89.9821 35.8322 89.6067 34.3816C89.4161 33.6446 89.0768 32.4548 88.5108 31.0261C88.0145 29.7736 86.9145 27.2243 84.8359 24.4031L36.5317 59.994ZM31.1169 31.1165C33.0878 21.1166 38.4614 12.2533 47.0139 5.95177L82.6047 54.256C84.2287 53.0594 85.9984 51.3115 87.4672 48.9632C88.9235 46.6347 89.6516 44.4078 89.9845 42.7185L31.1169 31.1165ZM47.0139 5.95177C52.1697 2.15289 58.7733 -0.946122 66.4367 -1.8873L73.7506 57.6652C77.8219 57.1652 80.7652 55.6113 82.6047 54.256L47.0139 5.95177ZM66.4786 -1.89243C70.7274 -2.40816 74.4935 -2.00591 76.2284 -1.7817C77.7347 -1.58705 81.9467 -1.00337 86.3798 0.899425L62.7145 56.0352C64.8875 56.9679 66.5689 57.3495 66.9995 57.4467C67.679 57.6 68.194 57.6789 68.5384 57.7234C68.89 57.7689 69.36 57.8167 69.9684 57.8403C70.3992 57.857 71.7919 57.903 73.7086 57.6704L66.4786 -1.89243ZM86.5612 0.97801C87.4445 1.36402 90.9404 2.84093 94.543 5.67575C98.2551 8.59674 100.525 11.7212 101.213 12.6549L52.9089 48.2457C52.9195 48.2601 53.021 48.3981 53.1841 48.6054C53.3496 48.816 53.6253 49.1579 53.9941 49.5764C54.7865 50.4758 55.9288 51.6392 57.4396 52.8281C60.3285 55.1013 62.9859 56.1545 62.5331 55.9566L86.5612 0.97801ZM101.213 12.6549C101.373 12.8714 102.89 14.8576 104.22 17.3544C105.796 20.3106 106.583 22.953 106.708 23.3486L49.5043 41.4522C49.3622 41.0032 49.9772 43.1471 51.2728 45.5777C51.8724 46.7025 52.417 47.5287 52.6884 47.927C52.916 48.2612 53.065 48.4576 52.9089 48.2457L101.213 12.6549ZM106.782 23.5873C107.5 25.9224 107.983 28.5058 108.148 29.3995C108.277 30.1007 108.435 31.0126 108.565 31.9484C108.622 32.3559 108.735 33.1994 108.812 34.209C108.847 34.664 108.919 35.7036 108.902 37.0103C108.894 37.655 108.86 38.831 108.683 40.2881C108.563 41.2756 108.138 44.6829 106.402 48.6695L51.3891 24.721C50.4234 26.9395 49.9181 28.8395 49.6503 30.0135C49.366 31.2601 49.2107 32.3119 49.1212 33.0484C48.9469 34.482 48.9147 35.6291 48.9069 36.2397C48.891 37.4783 48.9594 38.4295 48.986 38.778C49.0468 39.5748 49.1262 40.1339 49.1362 40.2052C49.1727 40.4685 49.1837 40.5008 49.1419 40.2742C49.1082 40.0916 49.0758 39.9342 49.062 39.8709C48.9963 39.5712 49.1201 40.2058 49.4298 41.2135L106.782 23.5873ZM107.104 46.9074C108.144 44.0349 108.509 41.6357 108.658 40.4458C108.827 39.086 108.871 37.9665 108.883 37.2388C108.905 35.8017 108.816 34.6644 108.757 34.0391C108.633 32.7429 108.437 31.6275 108.233 30.704L49.6418 43.63C49.3962 42.5169 49.167 41.199 49.0271 39.731C48.9593 39.0199 48.8664 37.8044 48.8898 36.3022C48.8999 35.6595 48.8952 31.4338 50.6874 26.4832L107.104 46.9074ZM108.095 30.1096C105.087 17.6789 95.4304 11.0853 87.5913 8.93534C79.8938 6.82426 65.9885 7.19801 56.6705 19.4684L104.454 55.7548C94.714 68.5815 80.0829 69.0917 71.7219 66.7986C63.2192 64.4667 52.9617 57.3726 49.7793 44.2244L108.095 30.1096ZM57.1403 18.8658C55.9863 20.3077 55.236 21.5291 54.9379 22.0245C54.5567 22.658 54.2671 23.1962 54.0663 23.5858C53.6884 24.3191 53.2958 25.1653 52.9163 26.1477L108.886 47.7679C108.456 48.8811 106.986 52.6074 103.985 56.3573L57.1403 18.8658ZM52.9163 26.1477C54.1886 22.854 56.2445 19.1169 58.1446 16.4386L107.08 51.1569C107.523 50.5323 107.789 50.0921 107.857 49.9786C107.958 49.8123 108.017 49.704 108.051 49.6414C108.084 49.5803 108.15 49.4581 108.246 49.2585C108.308 49.129 108.568 48.5891 108.886 47.7679L52.9163 26.1477ZM58.0479 16.5757C63.2841 9.10724 70.8316 3.39125 79.9071 0.573434L97.6985 57.8749C101.773 56.6099 105.068 54.0273 107.176 51.0197L58.0479 16.5757ZM80.0282 0.536092C84.0298 -0.687816 88.3331 -1.28861 92.0397 -1.37216L93.3917 58.6126C94.2574 58.5931 94.8668 58.5183 95.2664 58.4569C95.6274 58.4013 96.4265 58.2643 97.5774 57.9123L80.0282 0.536092ZM92.364 -1.37772C95.5586 -1.41517 98.5978 -0.995179 100.138 -0.757255C101.833 -0.495483 104.639 0.00506594 107.47 0.889354L89.5766 58.1592C90.0546 58.3086 90.4088 58.4012 90.5903 58.4468C90.7861 58.4959 90.9151 58.5239 90.9674 58.535C91.06 58.5546 91.053 58.5509 90.9806 58.5398C90.9042 58.528 90.9272 58.5343 91.0808 58.5492C91.1631 58.5571 91.3487 58.574 91.6218 58.5892C91.8671 58.6028 92.3766 58.6263 93.0674 58.6182L92.364 -1.37772ZM107.354 0.853443C121.054 5.07313 135.054 15.5004 141.708 30.3334L86.9639 54.891C87.5102 56.1088 88.0568 56.8659 88.3501 57.2316C88.6552 57.6121 88.8634 57.7909 88.9253 57.8421C88.993 57.8981 89.0379 57.9272 89.0923 57.957C89.144 57.9854 89.3295 58.0834 89.6924 58.1951L107.354 0.853443ZM141.674 30.2581C149.633 47.8698 145.198 67.8095 133.223 80.9108L88.9355 40.4313C86.0835 43.5516 84.2814 48.9553 86.9978 54.9662L141.674 30.2581ZM133.27 80.86C130.681 83.7052 127.505 86.0423 126.759 86.6003C125.309 87.6837 123.265 89.1319 121.199 90.3636L90.4656 38.8328C90.1582 39.0161 90.0874 39.0735 90.2846 38.9383C90.4401 38.8318 90.6418 38.6877 90.8387 38.5405C91.0532 38.3802 91.118 38.3239 91.0343 38.3932C90.9916 38.4287 90.8133 38.577 90.5451 38.8204C90.4063 38.9464 90.2005 39.1368 89.9489 39.3826C89.7087 39.6173 89.335 39.9921 88.8892 40.482L133.27 80.86ZM121.098 90.4238C117.874 92.3295 113.535 94.6523 108.646 96.159C104.743 97.3615 93.7974 100.195 82.237 94.1133L110.172 41.0129C105.062 38.3251 100.277 37.8174 97.1324 37.8793C94.0957 37.9391 91.9119 38.5314 90.9773 38.8194C89.2676 39.3462 88.9133 39.7501 90.5669 38.7726L121.098 90.4238ZM82.3012 94.147C82.8451 94.4315 85.5551 95.8685 89.4292 96.6955C94.2309 97.7206 98.6187 97.3931 102.108 96.577L88.4428 38.1538C92.224 37.2694 96.8673 36.9314 101.956 38.0177C106.117 38.906 109.145 40.476 110.107 40.9792L82.3012 94.147ZM102.227 96.5488C104.691 95.9619 110.191 94.2997 115.358 89.3379C121.269 83.663 123.749 76.6065 124.222 70.6776L64.4124 65.9059C64.9249 59.4823 67.5771 52.0358 73.803 46.058C79.2861 40.7933 85.2453 38.9153 88.323 38.1821L102.227 96.5488ZM124.165 71.3099C124.098 71.9757 124.365 69.8816 124.284 67.5138C124.164 64.0425 123.401 59.9686 121.426 55.8252C119.827 52.471 117.963 50.2498 117.53 49.7313C117.057 49.1637 116.605 48.6816 116.913 49.0177L72.6523 89.5267C72.6119 89.4825 72.4605 89.3175 72.3047 89.1441C72.1517 88.9739 71.8315 88.6155 71.4539 88.1628C70.8804 87.4752 68.9233 85.1226 67.2654 81.6448C65.2312 77.3779 64.4434 73.1882 64.3191 69.5792C64.2679 68.0933 64.3372 66.9099 64.3792 66.3165C64.4018 65.9968 64.4251 65.7363 64.4396 65.5815C64.4536 65.4308 64.4665 65.3038 64.4696 65.2736L124.165 71.3099ZM116.664 48.7489C118.22 50.4076 119.693 52.3478 120.512 53.4881L71.7669 88.473C71.8782 88.628 71.9202 88.6792 71.9265 88.6872C71.939 88.7028 71.9947 88.7726 72.0953 88.8922C72.1471 88.9538 72.2326 89.0544 72.3469 89.1848C72.4518 89.3045 72.644 89.5211 72.9013 89.7954L116.664 48.7489ZM120.291 53.1851C121.547 54.8889 123.658 57.8401 125.335 62.2814L69.2043 83.4788C69.3408 83.8403 69.5875 84.4645 69.9478 85.23C70.3209 86.0229 70.7128 86.7494 71.098 87.3967C71.7395 88.4743 72.2717 89.162 71.9872 88.7759L120.291 53.1851ZM125.339 62.2913C129.647 73.7124 127.908 84.8518 123.397 93.7274L69.9094 66.542C69.1685 67.9996 68.1768 70.5156 67.8905 73.8881C67.5926 77.396 68.156 80.7001 69.2005 83.4689L125.339 62.2913ZM123.41 93.7019C120.649 99.1469 116.843 103.609 113.448 106.846L72.0449 63.4203C71.9037 63.5549 71.689 63.775 71.4031 64.1407C71.1561 64.4565 70.5631 65.2527 69.8965 66.5674L123.41 93.7019ZM113.451 106.843C110.19 109.954 105.099 113.572 101.197 115.619L73.3255 62.4853C72.9268 62.6944 72.6576 62.8522 72.5489 62.9168C72.4841 62.9553 72.4383 62.9834 72.4123 62.9995C72.3988 63.0079 72.3889 63.0141 72.3827 63.0181C72.3765 63.022 72.3732 63.0241 72.373 63.0242C72.373 63.0242 72.3822 63.0183 72.4003 63.0063C72.4182 62.9945 72.4422 62.9784 72.4717 62.9584C72.5322 62.9172 72.6033 62.8677 72.6794 62.8134C72.7554 62.759 72.8237 62.7089 72.8793 62.6672C72.9362 62.6245 72.963 62.6032 72.9588 62.6066C72.9555 62.6091 72.939 62.6223 72.9099 62.6461C72.8813 62.6695 72.8337 62.709 72.7691 62.7641C72.6609 62.8563 72.3992 63.0824 72.0416 63.4234L113.451 106.843ZM101.216 115.609C88.5082 122.286 72.3907 124.572 57.11 117.983L80.8653 62.8862C76.6 61.0472 73.6067 62.3375 73.3064 62.4953L101.216 115.609ZM57.2548 118.045C56.0235 117.522 54.0715 116.617 52.2593 115.553L82.6559 63.822C82.1503 63.5249 81.7786 63.3296 81.6624 63.2689C81.5015 63.1847 81.388 63.1285 81.3256 63.098C81.2401 63.0562 81.0512 62.9647 80.7204 62.8242L57.2548 118.045ZM52.4541 115.666L51.8574 115.321L81.8645 63.364L82.4612 63.7086L52.4541 115.666ZM38.1066 97.8975L37.9242 97.2845L95.433 80.1748L95.6154 80.7879L38.1066 97.8975ZM37.9292 97.3012C38.0112 97.5763 38.5624 99.4861 39.7378 101.814C40.4229 103.17 44.296 111.024 53.9422 115.406C66.4495 121.087 77.3531 116.486 82.0069 113.588C85.9729 111.119 88.3196 108.295 88.6381 107.924L43.1357 68.8149C43.6552 68.2105 46.1732 65.2204 50.2903 62.6565C55.0951 59.6645 66.1294 55.0419 78.7563 60.7774C88.5221 65.2134 92.5037 73.1981 93.2955 74.7658C94.5776 77.3046 95.2337 79.5063 95.428 80.1582L37.9292 97.3012ZM88.5964 107.972C86.4916 110.411 83.0237 113.649 78.081 115.96L52.6646 61.6096C50.8741 62.447 49.553 63.2867 48.8615 63.7472C48.0658 64.2771 47.3951 64.7816 46.8502 65.2188C45.8786 65.9985 44.5647 67.1593 43.1773 68.7666L88.5964 107.972ZM78.3637 115.826C88.6422 110.889 93.5509 101.56 94.7402 93.686C95.9296 85.8113 93.9939 75.4696 85.6624 67.7237L44.8084 111.666C36.2049 103.667 34.1706 92.9511 35.4131 84.7248C36.6556 76.4994 41.7689 66.8422 52.382 61.7436L78.3637 115.826ZM84.8478 66.9936C91.4328 72.6826 94.189 79.8456 95.0499 85.4932C95.3623 87.5425 95.4012 89.2043 95.4102 89.9595C95.4201 90.7921 95.3973 91.4952 95.3858 91.8227L35.4226 89.7201C35.4222 89.7333 35.419 89.8238 35.4164 89.9628C35.4139 90.0984 35.4106 90.3478 35.4144 90.6723C35.4204 91.1801 35.4471 92.6456 35.7352 94.5352C36.0371 96.5157 36.7379 99.7558 38.5774 103.385C40.5612 107.299 43.1499 110.26 45.623 112.396L84.8478 66.9936ZM95.3846 91.8552C95.3973 91.5048 95.3997 91.2372 95.4003 91.0922C95.4009 90.9348 95.3994 90.8186 95.3984 90.7536C95.3964 90.629 95.3937 90.574 95.3945 90.5918C95.3949 90.6019 95.396 90.625 95.3975 90.6476C95.3991 90.674 95.3982 90.653 95.3919 90.5813L35.6182 95.7876C35.5048 94.4856 35.3408 91.984 35.4238 89.6876L95.3846 91.8552ZM95.39 90.5595C95.6152 93.1226 95.9128 97.7934 94.7721 103.172C93.4872 109.231 90.9308 113.767 88.7499 116.914L39.4365 82.735C38.644 83.8784 36.9335 86.6881 36.0774 90.725C35.3656 94.0816 35.675 96.4341 35.6201 95.8094L95.39 90.5595ZM88.72 116.957C82.1227 126.44 72.5136 132.143 61.96 134.094L51.05 75.0946C49.4273 75.3946 47.2187 76.0897 44.888 77.5551C42.5232 79.0419 40.7189 80.8915 39.4663 82.692L88.72 116.957ZM61.9062 134.104C48.2147 136.61 34.2729 132.348 24.2919 123.791L63.3438 78.2396C61.6221 76.7636 59.7837 75.8538 57.9964 75.3497C56.2253 74.8501 53.8802 74.5765 51.1038 75.0847L61.9062 134.104ZM24.3517 123.842C20.6454 120.682 18.2681 117.844 15.8861 114.611L64.1903 79.0207C64.43 79.346 64.5334 79.4777 64.5499 79.4985C64.5553 79.5052 64.4495 79.3716 64.2572 79.1576C64.0538 78.9311 63.8315 78.7013 63.6111 78.4895C63.403 78.2895 63.2723 78.1786 63.284 78.1885L24.3517 123.842ZM15.7939 114.486C14.3882 112.557 12.9746 110.554 11.4421 107.643L64.5363 79.6964C64.5099 79.6463 64.4209 79.4793 64.2861 79.2483C64.1469 79.0096 64.0171 78.8023 63.9156 78.6466C63.826 78.5093 63.7901 78.461 63.8541 78.5519C63.9227 78.6494 64.0494 78.8267 64.2826 79.1466L15.7939 114.486ZM11.4024 107.567C7.87006 100.81 4.02645 90.5784 6.07924 78.5647L65.2221 88.6704C66.3024 82.348 63.9838 78.6391 64.5761 79.7722L11.4024 107.567ZM6.08616 78.5243C7.20265 72.0435 10.0516 65.3195 15.3156 59.5851C20.4503 53.9915 26.5233 50.8149 31.897 49.065L50.476 106.116C52.6609 105.404 56.2235 103.747 59.5162 100.16C62.9382 96.4319 64.6136 92.2023 65.2151 88.7108L6.08616 78.5243ZM32.2611 48.9489C33.262 48.637 35.5229 47.9723 37.8724 47.5666L48.0808 106.692C48.7167 106.582 49.1685 106.479 49.3121 106.446C49.5051 106.402 49.6328 106.369 49.6869 106.355C49.7654 106.335 49.8844 106.303 50.1119 106.232L32.2611 48.9489ZM37.9994 47.545C37.572 47.6169 36.3349 47.8346 34.7299 48.3322C33.1619 48.8183 30.2506 49.8684 27.0474 52.0683C23.5238 54.4883 20.1641 57.9494 17.7534 62.5053C15.4795 66.8024 14.7643 70.7298 14.5182 73.1835L74.2187 79.171C73.5307 86.0309 70.155 95.2501 61.0155 101.527C54.9135 105.718 48.756 106.578 47.9538 106.713L37.9994 47.545ZM14.5157 73.2087C14.2549 75.8316 14.1297 80.8102 16.3637 86.5482C18.8839 93.0212 23.595 98.334 29.5617 101.623C34.8372 104.531 39.6654 105.086 42.2099 105.198C44.8731 105.315 46.9074 105.019 47.8649 104.854L37.6565 45.7285C38.972 45.5013 48.5537 43.5803 58.5245 49.076C64.754 52.5096 69.6482 58.0314 72.2755 64.7796C74.6167 70.7929 74.5228 76.113 74.2212 79.1458L14.5157 73.2087ZM47.6504 104.89C46.9706 105.002 42.0301 105.949 35.9551 104.685C33.5396 104.183 31.6845 103.494 30.8165 103.156C29.9765 102.83 29.2298 102.5 29.0432 102.418L53.1554 47.4759C53.4482 47.6044 53.0739 47.4345 52.5414 47.2277C51.9811 47.01 50.3689 46.3992 48.1739 45.9426C45.6379 45.4151 43.1902 45.2646 40.9395 45.373C39.9603 45.4202 39.177 45.5091 38.7008 45.5708C38.2461 45.6297 37.9117 45.6855 37.871 45.6922L47.6504 104.89ZM29.0364 102.415C22.5201 99.553 17.2818 95.6401 12.7321 90.4934L57.6857 50.7546C57.4213 50.4555 56.743 49.7457 55.6796 48.9641C54.6041 48.1736 53.6667 47.7005 53.1622 47.4789L29.0364 102.415ZM12.678 90.4321C-0.489389 75.4547 -2.04373 54.6205 4.04321 38.4241L60.2078 59.5318C60.5853 58.5272 60.6961 57.5135 60.5389 56.4115C60.3909 55.3742 59.8337 53.1977 57.7398 50.8159L12.678 90.4321ZM4.05388 38.3957C7.01579 30.5386 11.5176 23.9566 17.979 18.3475L57.312 63.6566C57.6422 63.3699 58.3304 62.7004 59.0424 61.6715C59.747 60.6532 60.0945 59.8325 60.1971 59.5601L4.05388 38.3957ZM17.979 18.3475C20.8787 15.8302 24.6202 13.5723 26.6193 12.5016L54.9473 65.3932C55.1448 65.2874 55.2837 65.2085 55.3536 65.1683C55.4283 65.1253 55.4732 65.0983 55.488 65.0894C55.5104 65.0758 55.4996 65.0821 55.4811 65.0942C55.4524 65.113 55.5206 65.0697 55.6814 64.9547C55.7647 64.8952 55.93 64.7756 56.1542 64.6037C56.3487 64.4546 56.7725 64.125 57.312 63.6566L17.979 18.3475Z" fill="black" mask="url(#path-3-inside-1)"/>
<path d="M127.946 166.757C127.454 156.667 120.907 148.344 113.796 141.88C110.548 138.928 109.329 138 104.838 138C100.079 138 99.6221 140.971 96.0511 143.649C93.102 145.861 92 151.813 92 155.46C92 160.412 96.2909 158.769 98.1623 161.108C100.847 164.464 104.193 159.374 105.123 157.514C107.024 153.713 102.263 154.433 100.216 154.433" stroke="#FFD700" stroke-width="8" stroke-linecap="round" stroke-linejoin="round"/>
<path d="M167.319 137.942C157.223 137.609 148.798 131.193 142.222 124.185C139.219 120.984 138.273 119.78 138.202 115.289C138.127 110.531 141.09 110.027 143.712 106.414C145.877 103.431 151.811 102.235 155.458 102.178C160.409 102.1 158.834 106.416 161.203 108.25C164.6 110.882 159.564 114.308 157.718 115.267C153.947 117.227 154.592 112.456 154.56 110.409" stroke="#FFD700" stroke-width="8" stroke-linecap="round" stroke-linejoin="round"/>
<path d="M118.114 124.596C130.867 134.257 140.006 146.811 146.871 160.542" stroke="#FFD700" stroke-width="8" stroke-linecap="round" stroke-linejoin="round"/>
</svg>
