<?xml version="1.0" standalone="no"?>
<!DOCTYPE svg PUBLIC "-//W3C//DTD SVG 20010904//EN"
 "http://www.w3.org/TR/2001/REC-SVG-20010904/DTD/svg10.dtd">
<svg version="1.0" xmlns="http://www.w3.org/2000/svg"
 width="512.000000pt" height="512.000000pt" viewBox="0 0 512.000000 512.000000"
 preserveAspectRatio="xMidYMid meet">
<metadata>
Created by potrace 1.16, written by Peter Selinger 2001-2019
</metadata>
<g transform="translate(0.000000,512.000000) scale(0.100000,-0.100000)"
fill="#000000" stroke="none">
<path d="M1400 3880 c-243 -22 -486 -119 -685 -275 -492 -384 -645 -1076 -362
-1640 61 -122 132 -220 235 -327 190 -196 410 -317 682 -375 119 -25 391 -25
510 0 600 128 1024 623 1057 1231 38 713 -489 1322 -1200 1386 -113 10 -117
10 -237 0z"/>
<path d="M3527 3800 c-97 -25 -217 -116 -300 -230 -129 -174 -226 -463 -258
-770 -16 -159 -7 -473 20 -620 73 -410 243 -716 457 -821 64 -32 75 -34 169
-34 92 0 105 3 169 33 226 107 413 462 472 901 23 170 20 469 -5 639 -65 433
-238 755 -466 868 -58 28 -86 36 -146 39 -41 2 -91 0 -112 -5z"/>
<path d="M4577 3653 c-237 -248 -246 -1863 -12 -2169 45 -59 111 -39 155 45
44 85 88 275 116 496 21 167 30 698 15 895 -42 551 -155 856 -274 733z"/>
</g>
</svg>
