<svg width="300" height="406" viewBox="0 0 300 406" fill="none" xmlns="http://www.w3.org/2000/svg">
<path d="M191.415 377.374L184.323 396.999H149.409H114.21L103.096 377.009C102.487 375.913 101.16 375.438 99.9932 375.899L64.8028 389.787L30.7529 403.224C23.707 398.81 17.1724 389.983 12.1437 377.569C6.9039 364.635 3.42268 348.099 2.65856 329.433C1.13053 292.107 10.4785 246.535 37.9436 204.667C38.2308 204.229 38.3733 203.712 38.3509 203.189C36.0844 150.239 40.5506 112.813 57.0578 82.2858C73.4134 52.039 101.794 28.193 148.225 2.8465C194.595 28.1717 221.631 52.0113 237.752 82.2722C254.054 112.871 259.379 150.357 261.649 203.402C261.668 203.853 261.809 204.29 262.056 204.667C289.522 246.535 298.869 292.107 297.341 329.433C296.577 348.099 293.096 364.635 287.856 377.569C282.82 390.001 276.274 398.836 269.216 403.244L232.479 389.765L194.627 375.877C194.003 375.648 193.313 375.677 192.71 375.958C192.107 376.239 191.641 376.749 191.415 377.374Z" fill="#FFD700" stroke="#FFD700" stroke-width="5" stroke-linecap="round" stroke-linejoin="round"/>
<path d="M54.3104 203C50.4688 113.183 69.3314 74.4503 149.31 31C229.289 74.4503 243.469 113.183 247.31 203C294.276 274.651 279.31 359 251.81 374.5L219.81 362.75L187.81 351L181.31 369H150.31H119.31L109.31 351L79.5603 362.75L49.8104 374.5C22.3103 359 7.34493 274.651 54.3104 203Z" stroke="black" stroke-width="5" stroke-linecap="round" stroke-linejoin="round" stroke-dasharray="12 12"/>
<path d="M150.498 126.797C132.551 126.797 117.95 141.398 117.95 159.345C117.95 177.292 132.551 191.893 150.498 191.893C168.445 191.893 183.046 177.292 183.046 159.345C183.046 141.398 168.446 126.797 150.498 126.797ZM150.498 176.576C140.997 176.576 133.267 168.846 133.267 159.345C133.267 149.844 140.997 142.114 150.498 142.114C159.999 142.114 167.729 149.844 167.729 159.345C167.729 168.846 159.999 176.576 150.498 176.576Z" fill="black"/>
<path d="M248.28 238.301C238.992 224.046 227.813 217.494 221.976 214.855C225.11 194.79 226.162 174.76 223.103 157.66C211.992 95.5418 158.176 58.2218 155.891 56.6628C152.638 54.4457 148.358 54.4457 145.105 56.6628C142.82 58.2207 89.0035 95.5417 77.8935 157.659C74.7975 174.971 75.9145 195.286 79.1395 215.6C73.0175 218.643 62.9185 225.237 54.4055 238.3C38.4055 262.855 35.7185 297.759 46.4205 342.042C47.1605 345.107 49.3635 347.611 52.3085 348.737C53.4155 349.16 54.5725 349.367 55.7245 349.367C57.6405 349.367 59.5395 348.792 61.1605 347.675L107.824 315.494C109.064 318.598 109.88 320.533 110.097 321.043C111.599 324.577 115.068 326.871 118.907 326.871H140.925V342.427C140.925 347.714 145.211 352 150.498 352C155.785 352 160.071 347.714 160.071 342.427V326.871H182.089C185.928 326.871 189.397 324.577 190.899 321.043C191.136 320.485 192.092 318.215 193.536 314.579L241.525 347.675C243.146 348.792 245.046 349.367 246.961 349.367C248.113 349.367 249.271 349.159 250.377 348.737C253.322 347.611 255.524 345.108 256.265 342.042C266.966 297.76 264.28 262.856 248.28 238.301ZM150.498 76.6168C156.692 81.6488 167.32 91.1327 177.621 104.301H123.375C133.678 91.1297 144.307 81.6468 150.498 76.6168ZM62.1075 323.765C51.6595 266.04 71.4745 243.496 82.9305 235.533C88.0875 259.034 95.2025 281.157 100.868 297.034L62.1075 323.765ZM175.634 307.725H160.071V231.86C160.071 226.573 155.785 222.287 150.498 222.287C145.211 222.287 140.925 226.573 140.925 231.86V307.725H125.358C116.784 285.991 88.2395 208.55 96.7395 161.03C99.5245 145.461 105.579 131.553 112.791 119.617H188.204C195.416 131.553 201.471 145.461 204.255 161.03C212.744 208.495 184.207 285.978 175.634 307.725ZM240.579 323.765L200.463 296.099C206.151 280.071 213.207 257.956 218.279 234.553C229.389 241.558 251.491 263.471 240.579 323.765Z" fill="black"/>
</svg>
